<svg xmlns="http://www.w3.org/2000/svg" xmlns:xlink="http://www.w3.org/1999/xlink" viewBox="0 0 512 512" width="512" height="512" style="width: 100%; height: 100%; transform: translate3d(0,0,0);" preserveAspectRatio="xMidYMid meet"><defs><clipPath id="__lottie_element_2"><rect width="512" height="512" x="0" y="0"></rect></clipPath><linearGradient id="__lottie_element_10" spreadMethod="pad" gradientUnits="userSpaceOnUse"><stop></stop><stop></stop><stop></stop></linearGradient><linearGradient id="__lottie_element_11" spreadMethod="pad" gradientUnits="userSpaceOnUse"><stop></stop><stop></stop><stop></stop></linearGradient><linearGradient id="__lottie_element_15" spreadMethod="pad" gradientUnits="userSpaceOnUse" x1="94.10700225830078" y1="151.95599365234375" x2="15.128999710083008" y2="19.691999435424805"><stop offset="0%" stop-color="rgb(83,162,252)"></stop><stop offset="50%" stop-color="rgb(96,185,253)"></stop><stop offset="100%" stop-color="rgb(110,207,255)"></stop></linearGradient><linearGradient id="__lottie_element_16" spreadMethod="pad" gradientUnits="userSpaceOnUse" x1="-10.130000114440918" y1="-38.231998443603516" x2="10.803999900817871" y2="37.891998291015625"><stop offset="0%" stop-color="rgb(255,255,255)" stop-opacity="1"></stop><stop offset="50%" stop-color="rgb(255,255,255)" stop-opacity="0.5"></stop><stop offset="100%" stop-color="rgb(255,255,255)" stop-opacity="0"></stop></linearGradient><linearGradient id="__lottie_element_23" spreadMethod="pad" gradientUnits="userSpaceOnUse" x1="69.97799682617188" y1="-128.06900024414062" x2="-96.54199981689453" y2="145.97500610351562"><stop offset="26%" stop-color="rgb(243,138,255)"></stop><stop offset="65%" stop-color="rgb(185,120,255)"></stop><stop offset="100%" stop-color="rgb(126,102,255)"></stop></linearGradient><linearGradient id="__lottie_element_24" spreadMethod="pad" gradientUnits="userSpaceOnUse" x1="5.827000141143799" y1="-39.242000579833984" x2="-5.591000080108643" y2="38.78499984741211"><stop offset="0%" stop-color="rgb(255,255,255)" stop-opacity="1"></stop><stop offset="50%" stop-color="rgb(255,255,255)" stop-opacity="0.5"></stop><stop offset="100%" stop-color="rgb(255,255,255)" stop-opacity="0"></stop></linearGradient></defs><g clip-path="url(#__lottie_element_2)"><g style="display: block;" transform="matrix(0.9999999403953552,0,0,0.9999999403953552,288.24566650390625,407.7522888183594)" opacity="1"><g opacity="1" transform="matrix(1,0,0,1,0,0)"><path stroke-linecap="round" stroke-linejoin="round" fill-opacity="0" stroke="rgb(51,51,51)" stroke-opacity="1" stroke-width="10" d=" M48.268001556396484,-83.95099639892578 C48.268001556396484,-45.63800048828125 17.291000366210938,-54.30099868774414 8.562999725341797,-23.75200080871582 C-1.0889999866485596,10.029000282287598 32.11600112915039,41.327999114990234 -9.682999610900879,50.50400161743164 C-32.784000396728516,55.57500076293945 -43.9630012512207,68.68199920654297 -48.268001556396484,83.95099639892578"></path></g></g><g style="display: block;" transform="matrix(0.9999999403953552,0,0,0.9999999403953552,-0.000152587890625,0.000091552734375)" opacity="1"><g opacity="1" transform="matrix(1,0,0,1,356.77099609375,178.14999389648438)"><path fill="url(#__lottie_element_23)" fill-opacity="1" d=" M6.2729997634887695,-157.14300537109375 C-64.93399810791016,-161.08900451660156 -124.23100280761719,-115.74299621582031 -139.85299682617188,-44.27399826049805 C-155.5489959716797,27.52899932861328 -114.33999633789062,103.26399993896484 -30.113000869750977,126.5250015258789 C-30.113000869750977,126.5250015258789 -44.86899948120117,145.9980010986328 -41.683998107910156,149.3159942626953 C-35.03900146484375,156.23899841308594 -9.305999755859375,161.0989990234375 -3.7209999561309814,153.6280059814453 C-0.035999998450279236,148.697998046875 -7.455999851226807,129.3939971923828 -7.455999851226807,129.3939971923828 C57.77799987792969,130.46499633789062 137.7760009765625,88.00199890136719 142.875,-6.464000225067139 C147.59500122070312,-93.90899658203125 88.15799713134766,-152.60499572753906 6.2729997634887695,-157.14300537109375z"></path></g><g opacity="0.4" transform="matrix(1,0,0,1,371.9219970703125,65.322998046875)"><path fill="url(#__lottie_element_24)" fill-opacity="1" d=" M87.08200073242188,6.755000114440918 C88.86799621582031,28.868999481201172 51.32699966430664,43.770999908447266 3.2330000400543213,40.040000915527344 C-44.861000061035156,36.308998107910156 -85.2959976196289,15.357999801635742 -87.08200073242188,-6.75600004196167 C-88.86799621582031,-28.8700008392334 -51.32699966430664,-43.770999908447266 -3.2330000400543213,-40.040000915527344 C44.861000061035156,-36.308998107910156 85.2959976196289,-15.359000205993652 87.08200073242188,6.755000114440918z"></path></g><g opacity="0.5" transform="matrix(1,0,0,1,355.3269958496094,152.39300537109375)"><path stroke-linecap="round" stroke-linejoin="round" fill-opacity="0" stroke="rgb(255,255,255)" stroke-opacity="1" stroke-width="13" d=" M94.80400085449219,120.57499694824219 C94.80400085449219,120.57499694824219 132.40199279785156,96.44000244140625 136.9219970703125,26.03499984741211 C142.44400024414062,-59.979000091552734 88.26200103759766,-115.5989990234375 6.3979997634887695,-120.31800079345703 C-64.79000091552734,-124.4219970703125 -117.55000305175781,-79.00700378417969 -132.8679962158203,-10.095000267028809 C-148.25799560546875,59.138999938964844 -118.70600128173828,88.71099853515625 -118.70600128173828,88.71099853515625"></path></g><g opacity="0.2" transform="matrix(1,0,0,1,354.50201416015625,221.7239990234375)"><path fill="rgb(107,46,204)" fill-opacity="1" d=" M-5.184000015258789,85.8219985961914 C-5.184000015258789,85.8219985961914 2.2309999465942383,105.12699890136719 -1.4490000009536743,110.05799865722656 C-7.033999919891357,117.52400207519531 -32.77000045776367,112.66100311279297 -39.41600036621094,105.74600219726562 C-42.5989990234375,102.41899871826172 -27.847999572753906,82.9489974975586 -27.847999572753906,82.9489974975586 C-105.55500030517578,61.49399948120117 -146.64300537109375,-4.644000053405762 -140.21800231933594,-71.13800048828125 C-136.70799255371094,-34.27399826049805 -132.5240020751953,-140.7050018310547 -91.18000030517578,-107.18000030517578 C-25.77199935913086,-54.141998291015625 -44.34400177001953,5.756999969482422 23.725000381469727,27.048999786376953 C71.88800048828125,42.11399841308594 116.78099822998047,13.128000259399414 140.8730010986328,-29.83099937438965 C122.55799865722656,44.00899887084961 52.805999755859375,86.7760009765625 -5.184000015258789,85.8219985961914z"></path></g><g opacity="1" transform="matrix(1,0,0,1,356.77099609375,178.14999389648438)"><path stroke-linecap="round" stroke-linejoin="round" fill-opacity="0" stroke="rgb(132,62,221)" stroke-opacity="1" stroke-width="13" d=" M6.2729997634887695,-157.14300537109375 C-64.93399810791016,-161.08900451660156 -124.23100280761719,-115.74299621582031 -139.85299682617188,-44.27399826049805 C-155.5489959716797,27.52899932861328 -114.33999633789062,103.26399993896484 -30.113000869750977,126.5250015258789 C-30.113000869750977,126.5250015258789 -44.86899948120117,145.9980010986328 -41.683998107910156,149.3159942626953 C-35.03900146484375,156.23899841308594 -9.305999755859375,161.0989990234375 -3.7209999561309814,153.6280059814453 C-0.035999998450279236,148.697998046875 -7.455999851226807,129.3939971923828 -7.455999851226807,129.3939971923828 C57.77799987792969,130.46499633789062 137.7760009765625,88.00199890136719 142.875,-6.464000225067139 C147.59500122070312,-93.90899658203125 88.15799713134766,-152.60499572753906 6.2729997634887695,-157.14300537109375z"></path></g><g opacity="1" transform="matrix(1,0,0,1,353.5849914550781,254.9199981689453)"><path stroke-linecap="round" stroke-linejoin="round" fill-opacity="0" stroke="rgb(102,50,204)" stroke-opacity="1" stroke-width="13" d=" M-139.58599853515625,-80.61199951171875 C-135.39700317382812,-22.684999465942383 -95.36199951171875,30.856000900268555 -26.927000045776367,49.755001068115234 C-26.927000045776367,49.755001068115234 -41.68299865722656,69.22799682617188 -38.49800109863281,72.5459976196289 C-31.85300064086914,79.46900177001953 -6.119999885559082,84.3290023803711 -0.5350000262260437,76.85800170898438 C3.1500000953674316,71.9280014038086 -4.269999980926514,52.624000549316406 -4.269999980926514,52.624000549316406 C51.67599868774414,53.54199981689453 118.4800033569336,22.441999435424805 139.58599853515625,-46.020999908447266"></path></g><g opacity="1" transform="matrix(1,0,0,1,401.864990234375,48.672000885009766)"><path fill="rgb(255,255,255)" fill-opacity="1" d=" M11.47599983215332,3.562999963760376 C10.640999794006348,6.251999855041504 4.827000141143799,6.835999965667725 -1.5110000371932983,4.868000030517578 C-7.848999977111816,2.9000000953674316 -12.310999870300293,-0.8740000128746033 -11.47599983215332,-3.562999963760376 C-10.640999794006348,-6.251999855041504 -4.827000141143799,-6.835999965667725 1.5110000371932983,-4.868000030517578 C7.848999977111816,-2.9000000953674316 12.310999870300293,0.8740000128746033 11.47599983215332,3.562999963760376z"></path></g><g opacity="1" transform="matrix(1,0,0,1,381.4949951171875,54.33599853515625)"><path fill="rgb(255,255,255)" fill-opacity="1" d=" M4.76800012588501,1.4800000190734863 C4.421000003814697,2.5969998836517334 2.005000114440918,2.8410000801086426 -0.628000020980835,2.0230000019073486 C-3.260999917984009,1.2050000429153442 -5.114999771118164,-0.3630000054836273 -4.76800012588501,-1.4800000190734863 C-4.421000003814697,-2.5969998836517334 -2.005000114440918,-2.8410000801086426 0.628000020980835,-2.0230000019073486 C3.260999917984009,-1.2050000429153442 5.114999771118164,0.3630000054836273 4.76800012588501,1.4800000190734863z"></path></g></g><g style="display: block;" transform="matrix(1.0000001192092896,0,0,1.0000001192092896,208.62335205078125,417.04339599609375)" opacity="1"><g opacity="1" transform="matrix(1,0,0,1,0,0)"><path stroke-linecap="round" stroke-linejoin="round" fill-opacity="0" stroke="rgb(51,51,51)" stroke-opacity="1" stroke-width="10" d=" M12.163999557495117,-64.60900115966797 C55.61600112915039,-19.660999298095703 41.48899841308594,19.79599952697754 -1.8370000123977661,17.360000610351562 C-36.45000076293945,15.413999557495117 -45.70500183105469,42.202999114990234 -33.301998138427734,64.60900115966797"></path></g></g><g style="display: block;" transform="matrix(1.0000001192092896,0,0,1.0000001192092896,0.0002899169921875,0.000396728515625)" opacity="1"><g opacity="1" transform="matrix(1,0,0,1,154.64199829101562,216.12600708007812)"><path fill="url(#__lottie_element_15)" fill-opacity="1" d=" M-72.81500244140625,-130.51199340820312 C-134.5399932861328,-94.79199981689453 -160.29100036621094,-21.365999221801758 -134.19400024414062,46.97700119018555 C-107.9749984741211,115.63999938964844 -31.00200080871582,153.40899658203125 52.19900131225586,126.70999908447266 C52.19900131225586,126.70999908447266 50.527000427246094,151.0850067138672 55.0099983215332,152.11500549316406 C64.36199951171875,154.26499938964844 88.5510025024414,144.22799682617188 89.12799835205078,134.91799926757812 C89.50900268554688,128.77499389648438 72.7239990234375,116.69400024414062 72.7239990234375,116.69400024414062 C127.87699890136719,81.84200286865234 171.52499389648438,2.484999895095825 124.02300262451172,-79.3290023803711 C80.052001953125,-155.06199645996094 -1.8329999446868896,-171.58900451660156 -72.81500244140625,-130.51199340820312z"></path></g><g opacity="1" transform="matrix(1,0,0,1,143,190)"><path fill="rgb(255,255,255)" fill-opacity="1" d=" M47.645999908447266,-61.13999938964844 C58.882999420166016,-29.340999603271484 70.47699737548828,5.02400016784668 81.43499755859375,37.347999572753906 C85.5199966430664,46.93600082397461 83.61000061035156,59.827999114990234 71.37899780273438,60.64500045776367 C49.5629997253418,61.96200180053711 27.6560001373291,58.275001525878906 5.8480000495910645,57.375 C-5.958000183105469,57.777000427246094 -6.632999897003174,47.979000091552734 -2.253000020980835,39.50600051879883 C4.214000225067139,23.191999435424805 10.829000473022461,6.931000232696533 17.29800033569336,-9.383999824523926 C18.73200035095215,-12.911999702453613 23.5939998626709,-25.367000579833984 15.300000190734863,-20.655000686645508 C2.1670000553131104,-0.4339999854564667 -9.387999534606934,21.059999465942383 -21.97100067138672,41.69300079345703 C-27.2810001373291,51.183998107910156 -34.52199935913086,60.48500061035156 -45.87900161743164,62.24700164794922 C-53.96500015258789,62.3489990234375 -78.66100311279297,73.44200134277344 -82.76699829101562,66.98500061035156 C-87.04900360107422,60.433998107910156 -67.49600219726562,44.48699951171875 -63.58599853515625,38.33399963378906 C-33.45500183105469,4.683000087738037 -4.205999851226807,-29.7450008392334 26.575000762939453,-62.80799865722656 C33.099998474121094,-69.69400024414062 42.20199966430664,-72.96399688720703 47.645999908447266,-61.13999938964844z"></path></g><g opacity="0.4" transform="matrix(1,0,0,1,133.8780059814453,113.31300354003906)"><path fill="url(#__lottie_element_16)" fill-opacity="1" d=" M84.43000030517578,-22.371999740600586 C93.41600036621094,-2.0869998931884766 62.900001525878906,24.37299919128418 16.270000457763672,36.72800064086914 C-30.360000610351562,49.08300018310547 -75.44400024414062,42.65599822998047 -84.43000030517578,22.371000289916992 C-93.41600036621094,2.0869998931884766 -62.900001525878906,-24.37299919128418 -16.270000457763672,-36.72800064086914 C30.358999252319336,-49.08399963378906 75.44400024414062,-42.65599822998047 84.43000030517578,-22.371999740600586z"></path></g><g opacity="0.5" transform="matrix(1,0,0,1,157.59100341796875,207.41000366210938)"><path stroke-linecap="round" stroke-linejoin="round" fill-opacity="0" stroke="rgb(255,255,255)" stroke-opacity="1" stroke-width="13" d=" M135.1580047607422,41.2400016784668 C135.1580047607422,41.2400016784668 150.8939971923828,-11.177000045776367 121.58200073242188,-60.922000885009766 C82.38800048828125,-127.43800354003906 0.2639999985694885,-152.72999572753906 -70.80000305175781,-111.81700134277344 C-132.5959930419922,-76.23899841308594 -154.4499969482422,-5.104000091552734 -128.89199829101562,60.70100021362305 C-105.40699768066406,121.16799926757812 -60.900001525878906,131.58900451660156 -60.900001525878906,131.58900451660156"></path></g><g opacity="0.3" transform="matrix(1,0,0,1,156.13499450683594,270.0050048828125)"><path fill="rgb(0,127,198)" fill-opacity="1" d=" M71.23400115966797,62.814998626708984 C71.23400115966797,62.814998626708984 88.01699829101562,74.9000015258789 87.64099884033203,81.04100036621094 C87.06099700927734,90.34700012207031 62.867000579833984,100.38300323486328 53.51900100708008,98.24099731445312 C49.03300094604492,97.2020034790039 50.70199966430664,72.83200073242188 50.70199966430664,72.83200073242188 C-26.055999755859375,97.46900177001953 -132.0070037841797,53.797000885009766 -144.97999572753906,-48.279998779296875 C-122.66899871826172,53.797000885009766 158.95199584960938,57.46099853515625 137.50599670410156,-98.53299713134766 C162.6490020751953,-26.731000900268555 120.26399993896484,31.834999084472656 71.23400115966797,62.814998626708984z"></path></g><g opacity="1" transform="matrix(1,0,0,1,154.36000061035156,216.65199279785156)"><path stroke-linecap="round" stroke-linejoin="round" fill-opacity="0" stroke="rgb(0,127,198)" stroke-opacity="1" stroke-width="13" d=" M-72.53199768066406,-131.03799438476562 C-134.2570037841797,-95.31800079345703 -160.0919952392578,-22.981000900268555 -134.91200256347656,48.45100021362305 C-113.61900329589844,108.8550033569336 -30.719999313354492,152.88299560546875 52.48099899291992,126.18399810791016 C52.48099899291992,126.18399810791016 50.808998107910156,150.5590057373047 55.29199981689453,151.58900451660156 C64.64399719238281,153.73899841308594 88.83300018310547,143.70199584960938 89.41000366210938,134.39199829101562 C89.79100036621094,128.24899291992188 73.00599670410156,116.16799926757812 73.00599670410156,116.16799926757812 C128.15899658203125,81.31600189208984 170.7429962158203,4.123000144958496 125.30500030517578,-78.8550033569336 C85.61900329589844,-151.3280029296875 -1.5499999523162842,-172.11500549316406 -72.53199768066406,-131.03799438476562z"></path></g><g opacity="1" transform="matrix(1,0,0,1,156.28399658203125,290.656005859375)"><path stroke-linecap="round" stroke-linejoin="round" fill-opacity="0" stroke="rgb(0,109,183)" stroke-opacity="1" stroke-width="13" d=" M-142.49400329589844,-45.22700119018555 C-141.02999877929688,-38.680999755859375 -139.1479949951172,-32.112998962402344 -136.83599853515625,-25.55299949645996 C-115.54299926757812,34.85100173950195 -32.643001556396484,78.87899780273438 50.55799865722656,52.18000030517578 C50.55799865722656,52.18000030517578 48.8849983215332,76.55400085449219 53.36800003051758,77.58399963378906 C62.720001220703125,79.73400115966797 86.90899658203125,69.697998046875 87.48600006103516,60.38800048828125 C87.86699676513672,54.244998931884766 71.08200073242188,42.16299819946289 71.08200073242188,42.16299819946289 C109,18.20199966430664 140.9770050048828,-25.770999908447266 142.49400329589844,-77.87799835205078"></path></g><g opacity="1" transform="matrix(1,0,0,1,159.0970001220703,83.9280014038086)"><path fill="rgb(255,255,255)" fill-opacity="1" d=" M12.013999938964844,0.2720000147819519 C11.949999809265137,3.0859999656677246 6.519000053405762,5.245999813079834 -0.11599999666213989,5.0960001945495605 C-6.750999927520752,4.946000099182129 -12.07800006866455,2.5420000553131104 -12.013999938964844,-0.2720000147819519 C-11.949999809265137,-3.0859999656677246 -6.519000053405762,-5.245999813079834 0.11599999666213989,-5.0960001945495605 C6.750999927520752,-4.946000099182129 12.07800006866455,-2.5420000553131104 12.013999938964844,0.2720000147819519z"></path></g><g opacity="1" transform="matrix(1,0,0,1,141.06700134277344,94.97100067138672)"><path fill="rgb(255,255,255)" fill-opacity="1" d=" M4.992000102996826,0.11299999803304672 C4.965000152587891,1.281999945640564 2.7090001106262207,2.178999900817871 -0.04800000041723251,2.117000102996826 C-2.805000066757202,2.055000066757202 -5.019000053405762,1.055999994277954 -4.992000102996826,-0.11299999803304672 C-4.965000152587891,-1.281999945640564 -2.7090001106262207,-2.178999900817871 0.04800000041723251,-2.117000102996826 C2.805000066757202,-2.055000066757202 5.019000053405762,-1.055999994277954 4.992000102996826,0.11299999803304672z"></path></g></g><g style="display: none;"><g><path fill="url(#__lottie_element_10)"></path></g><g><path fill="url(#__lottie_element_11)"></path></g><g><path stroke-linecap="round" stroke-linejoin="round" fill-opacity="0"></path></g><g><path></path></g><g><path stroke-linecap="round" stroke-linejoin="round" fill-opacity="0"></path></g><g><path stroke-linecap="round" stroke-linejoin="round" fill-opacity="0"></path></g><g><path></path></g><g><path></path></g></g></g></svg>
