<svg xmlns="http://www.w3.org/2000/svg" width="512" height="512" style="width:100%;height:100%;transform:translate3d(0,0,0)"><defs><linearGradient id="Q" gradientUnits="userSpaceOnUse" spreadMethod="pad"><stop/><stop/><stop/><stop/><stop/></linearGradient><linearGradient id="y" gradientUnits="userSpaceOnUse" spreadMethod="pad"><stop/><stop/><stop/></linearGradient><linearGradient id="J" gradientUnits="userSpaceOnUse" spreadMethod="pad"><stop/><stop/></linearGradient><linearGradient id="P" gradientUnits="userSpaceOnUse" spreadMethod="pad"><stop/><stop/></linearGradient><linearGradient id="O" gradientUnits="userSpaceOnUse" spreadMethod="pad"><stop/><stop/></linearGradient><linearGradient id="N" gradientUnits="userSpaceOnUse" spreadMethod="pad"><stop/><stop/></linearGradient><linearGradient id="M" gradientUnits="userSpaceOnUse" spreadMethod="pad"><stop/><stop/></linearGradient><linearGradient id="L" gradientUnits="userSpaceOnUse" spreadMethod="pad"><stop/><stop/></linearGradient><linearGradient id="K" gradientUnits="userSpaceOnUse" spreadMethod="pad"><stop/><stop/></linearGradient><linearGradient id="H" gradientUnits="userSpaceOnUse" spreadMethod="pad"><stop/><stop/><stop/></linearGradient><linearGradient id="I" gradientUnits="userSpaceOnUse" spreadMethod="pad"><stop/><stop/><stop/></linearGradient><linearGradient id="D" gradientUnits="userSpaceOnUse" spreadMethod="pad"><stop/><stop/><stop/></linearGradient><linearGradient id="E" gradientUnits="userSpaceOnUse" spreadMethod="pad"><stop/><stop/><stop/></linearGradient><linearGradient id="F" gradientUnits="userSpaceOnUse" spreadMethod="pad"><stop/><stop/><stop/></linearGradient><linearGradient id="G" gradientUnits="userSpaceOnUse" spreadMethod="pad"><stop/><stop/><stop/></linearGradient><linearGradient id="z" gradientUnits="userSpaceOnUse" spreadMethod="pad"><stop/><stop/><stop/></linearGradient><linearGradient id="A" gradientUnits="userSpaceOnUse" spreadMethod="pad"><stop/><stop/><stop/></linearGradient><linearGradient id="B" gradientUnits="userSpaceOnUse" spreadMethod="pad"><stop/><stop/><stop/></linearGradient><linearGradient id="C" gradientUnits="userSpaceOnUse" spreadMethod="pad"><stop/><stop/><stop/><stop/><stop/></linearGradient><linearGradient id="x" gradientUnits="userSpaceOnUse" spreadMethod="pad"><stop/><stop/><stop/></linearGradient><linearGradient id="v" x1="-48.568" x2="44.255" y1="83.135" y2="-62.599" gradientUnits="userSpaceOnUse" spreadMethod="pad"><stop offset="0%" stop-color="#FFC800"/><stop offset="25%" stop-color="#FFD212"/><stop offset="50%" stop-color="#FFDD24"/><stop offset="75%" stop-color="#FFE836"/><stop offset="100%" stop-color="#FFF248"/></linearGradient><linearGradient id="d" x1="-241.248" x2="132.72" y1=".277" y2="-2.66" gradientUnits="userSpaceOnUse" spreadMethod="pad"><stop offset="0%" stop-color="#49C3F5"/><stop offset="50%" stop-color="#3AADFA"/><stop offset="100%" stop-color="#2C97FF"/></linearGradient><linearGradient id="o" gradientUnits="userSpaceOnUse" spreadMethod="pad"><stop/><stop/></linearGradient><linearGradient id="u" gradientUnits="userSpaceOnUse" spreadMethod="pad"><stop/><stop/></linearGradient><linearGradient id="t" gradientUnits="userSpaceOnUse" spreadMethod="pad"><stop/><stop/></linearGradient><linearGradient id="s" gradientUnits="userSpaceOnUse" spreadMethod="pad"><stop/><stop/></linearGradient><linearGradient id="r" gradientUnits="userSpaceOnUse" spreadMethod="pad"><stop/><stop/></linearGradient><linearGradient id="q" gradientUnits="userSpaceOnUse" spreadMethod="pad"><stop/><stop/></linearGradient><linearGradient id="p" gradientUnits="userSpaceOnUse" spreadMethod="pad"><stop/><stop/></linearGradient><linearGradient id="m" x1="-27.542" x2="37.055" y1="40.743" y2="-41.124" gradientUnits="userSpaceOnUse" spreadMethod="pad"><stop offset="0%" stop-color="#73EFFF"/><stop offset="50%" stop-color="#8CE2FF"/><stop offset="100%" stop-color="#A5D5FF"/></linearGradient><linearGradient id="n" x1="88.208" x2="-72.695" y1="20.993" y2="-44.874" gradientUnits="userSpaceOnUse" spreadMethod="pad"><stop offset="0%" stop-color="#73EFFF"/><stop offset="50%" stop-color="#8CE2FF"/><stop offset="100%" stop-color="#A5D5FF"/></linearGradient><linearGradient id="i" x1="12.905" x2="1.762" y1="54.44" y2="-20.24" gradientUnits="userSpaceOnUse" spreadMethod="pad"><stop offset="0%" stop-color="#FFEC33"/><stop offset="50%" stop-color="#FDD11A"/><stop offset="100%" stop-color="#FBB500"/></linearGradient><linearGradient id="j" x1="3.089" x2="-3.176" y1="-59.404" y2="60.132" gradientUnits="userSpaceOnUse" spreadMethod="pad"><stop offset="0%" stop-color="#FFD119"/><stop offset="40%" stop-color="#F5A40C"/><stop offset="80%" stop-color="#EA7800"/></linearGradient><linearGradient id="k" x1="-8.233" x2="8.237" y1="6.072" y2="-6.376" gradientUnits="userSpaceOnUse" spreadMethod="pad"><stop offset="0%" stop-color="#FFD119"/><stop offset="50%" stop-color="#FFE764"/><stop offset="100%" stop-color="#FFFDAF"/></linearGradient><linearGradient id="l" x1="-3783.58301" x2="-3830.86304" y1="2758.54004" y2="2636.99512" gradientUnits="userSpaceOnUse" spreadMethod="pad"><stop offset="0%" stop-color="#FFD119"/><stop offset="40%" stop-color="#F5A40C"/><stop offset="80%" stop-color="#EA7800"/></linearGradient><linearGradient id="e" x1="5.9" x2="-3.228" y1="-47.864" y2="-11.93" gradientUnits="userSpaceOnUse" spreadMethod="pad"><stop offset="0%" stop-color="#FFEC33"/><stop offset="50%" stop-color="#FDC81A"/><stop offset="100%" stop-color="#FBA400"/></linearGradient><linearGradient id="f" x1="-27.304" x2="27.45" y1="-17.216" y2="16.998" gradientUnits="userSpaceOnUse" spreadMethod="pad"><stop offset="0%" stop-color="#FFD119"/><stop offset="40%" stop-color="#F5A40C"/><stop offset="80%" stop-color="#EA7800"/></linearGradient><linearGradient id="g" x1="-2.686" x2="7.847" y1="-8.86" y2="24.845" gradientUnits="userSpaceOnUse" spreadMethod="pad"><stop offset="0%" stop-color="#F0B300"/><stop offset="50%" stop-color="#F8D857"/><stop offset="100%" stop-color="#FFFDAF"/></linearGradient><linearGradient id="h" x1="-7217.53418" x2="-7227.71582" y1="-3043.81201" y2="-2956.09009" gradientUnits="userSpaceOnUse" spreadMethod="pad"><stop offset="0%" stop-color="#FFD119"/><stop offset="14%" stop-color="#FABA13"/><stop offset="27%" stop-color="#F5A40C"/><stop offset="41%" stop-color="#EF8E06"/><stop offset="54%" stop-color="#EA7800"/></linearGradient><linearGradient id="c" x1="-3.452" x2="1.272" y1="-50.449" y2="20.931" gradientUnits="userSpaceOnUse" spreadMethod="pad"><stop offset="0%" stop-color="#14A8F2"/><stop offset="50%" stop-color="#178EE4"/><stop offset="100%" stop-color="#1A74D6"/></linearGradient><clipPath id="a"><path d="M0 0h512v512H0z"/></clipPath><clipPath id="w"><path d="M0 0h512v512H0z"/></clipPath><clipPath id="b"><path d="M0 0h512v512H0z"/></clipPath></defs><g clip-path="url(#a)"><g clip-path="url(#b)" style="display:block" transform="translate(0 -53)"><g style="display:block"><path fill="#6ED2FF" d="M115.707 308.72102s-10.549-5.381-19.945-4.285c-10.943 1.277-18.239 4.56-20.792 1.642-2.969-3.394 54.27-31.453 71.131-39.213 21.927-10.092 46.104-18.364 52.467-20.428 4.499-1.459 17.965-3.465 30.276-2.188 9.316.966 26.333 6.661 26.333 6.661s-46.372 12.953-76.429 24.709c-31.631 12.372-57.764 30.001-63.041 33.102z"/><path fill="none" stroke="#2D9CDE" stroke-width="5" d="M115.707 308.72102s-10.549-5.381-19.945-4.285c-10.943 1.277-18.239 4.56-20.792 1.642-2.969-3.394 54.27-31.453 71.131-39.213 21.927-10.092 46.104-18.364 52.467-20.428 4.499-1.459 17.965-3.465 30.276-2.188 9.316.966 26.333 6.661 26.333 6.661s-46.372 12.953-76.429 24.709c-31.631 12.372-57.764 30.001-63.041 33.102z"/><path fill="#6ED2FF" d="M401.545 308.722s11.01-2.694 20.691-2.279c12.767.547 20.179 3.324 22.434 1.763 1.581-1.094-54.619-30.276-72.955-39.274-22.112-10.851-48.586-20.336-55.075-22.495-3.655-1.216-17.303-2.371-29.918-1.094-9.546.966-29.364 5.472-29.364 5.472s46.341 10.517 76.785 23.163c35.566 14.773 61.995 31.643 67.402 34.744z"/><path fill="none" stroke="#2D9CDE" stroke-width="5" d="M401.545 308.722s11.01-2.694 20.691-2.279c12.767.547 20.179 3.324 22.434 1.763 1.581-1.094-54.619-30.276-72.955-39.274-22.112-10.851-48.586-20.336-55.075-22.495-3.655-1.216-17.303-2.371-29.918-1.094-9.546.966-29.364 5.472-29.364 5.472s46.341 10.517 76.785 23.163c35.566 14.773 61.995 31.643 67.402 34.744z"/><path fill="url(#c)" d="M-1.471 85.201c-17.688-.756-102.911-38.146-130.002-52.619 0 0-14.828-10.365-12.564-23.856C-141.459-6.636-14.415-51.173-3.722-50.985c42.366.744 145.69 46.519 147.408 59.711 1.849 14.201-4.62 16.805-4.62 16.805C108.861 51.609 36.473 86.823-1.471 85.201z" transform="translate(258.89899 301.89499)"/><path fill="none" stroke="#0078E5" stroke-miterlimit="10" stroke-width="5.001" d="M257.42799 387.09599c-17.688-.756-102.911-38.146-130.00201-52.619 0 0-14.82799-10.365-12.564-23.856 2.578-15.362 129.622-59.899 140.315-59.711 42.366.744 145.69 46.519 147.40801 59.711 1.849 14.201-4.62 16.805-4.62 16.805-30.205 26.078-102.593 61.292-140.537 59.67z"/><path fill="#006BCC" d="M254.92199 256.722c-1.493 25.577.414 79.884.209 101.04-.032 3.336 4.315 3.246 4.465.143.589-12.173 1.407-87.246.257-100.889-.535-6.344-4.635-5.362-4.931-.294z" opacity=".9"/></g><g style="display:block"><path fill="#FFC119" d="M127.246 369.12499s44.707-17.863 71.7-27.438c24.884-8.827 48.993-21.438 63.437-16.793 15.368-7.02 22.743 9.669 61.681 19.164 10.585 2.581 38.666 18.239 46.326 22.616 7.66 4.377-63.716 7.2-112.961 12.672s-120.608 9.203-130.183-10.221z"/><path fill="none" stroke="#DB7D0A" stroke-miterlimit="10" stroke-width="4" d="M127.246 369.12499s44.707-17.863 71.7-27.438c24.884-8.827 48.993-21.438 63.437-16.793 15.368-7.02 22.743 9.669 61.681 19.164 10.585 2.581 38.666 18.239 46.326 22.616 7.66 4.377-63.716 7.2-112.961 12.672s-120.608 9.203-130.183-10.221z"/><path fill="#FFDE39" d="M180.251 357.108c8.499-3.296 30.257-11.189 35.589-14.589 14.535-9.269 38.584-19.635 46.904-14.297 16.506 10.59 70.381 20.903 95.17 39.747.349.265 10.378-.433 7.004-2.344-31.23-17.688-99.855-42.75-109.034-42.518-9.178.232-46.384 17.768-58.988 21.887-11.23 3.67-65.698 25.658-65.698 25.658s40.554-10.248 49.053-13.544z"/><path fill="#FFF36C" d="M280.754 333.06199c1.789 4.825 14.505 1.402 12.674-3.698-1.831-5.1-14.463-1.127-12.674 3.698z"/><path fill="none" stroke="#FF9F00" stroke-miterlimit="10" stroke-width="2.5" d="M280.754 333.06199c1.789 4.825 14.505 1.402 12.674-3.698-1.831-5.1-14.463-1.127-12.674 3.698z"/><path fill="#FFF36C" d="M203.174 338.748c-2.312 4.556 11.677 8.835 13.444 4.41 1.767-4.425-11.132-8.966-13.444-4.41z"/><path fill="none" stroke="#FF9F00" stroke-miterlimit="10" stroke-width="2.5" d="M203.174 338.748c-2.312 4.556 11.677 8.835 13.444 4.41 1.767-4.425-11.132-8.966-13.444-4.41z"/><path fill="#FFDE39" d="M299.53501 338.996c-4.556-5.792-21.986-7.094-26.088 1.968-.823 1.818 6.144-.859 11.112-1.594 5.878-.87 16.393 1.427 14.976-.374zM263.804 353.481c7.05-7.62 20.449-3.865 23.083 1.169.833 1.592-8.073-.717-11.048-1.109-2.975-.392-14.454 2.554-12.035-.06z"/><path fill="#FFCC39" d="M234.71 354.054c-11.272 5.696-23.334-13.992-11.871-21.259 11.079-7.023 23.126 15.572 11.871 21.259z"/><path fill="none" stroke="#FF9F00" stroke-miterlimit="10" stroke-width="2.5" d="M234.71 354.054c-11.272 5.696-23.334-13.992-11.871-21.259 11.079-7.023 23.126 15.572 11.871 21.259z"/><path fill="#FFF36C" d="M238.682 351.418c-9.607 5.928-23.611-15.85-11.871-21.258 11.74-5.408 21.478 15.33 11.871 21.258z"/><path fill="none" stroke="#FF9F00" stroke-miterlimit="10" stroke-width="2.5" d="M238.682 351.418c-9.607 5.928-23.611-15.85-11.871-21.258 11.74-5.408 21.478 15.33 11.871 21.258z"/><path fill="#FFC147" d="M227.2 345.21799c-.379-.409 5.981-12.541 6.656-12.625.544-.067 6.743 12.987 6.273 13.447-.47.46-5.701-1.254-5.778-1.819-.2-1.465-.681-6.558-.681-6.558s-1.406 5.555-1.835 6.544c-.249.572-4.178 1.505-4.635 1.011z"/><path fill="#F58A00" d="M268.229 340.32401c2.821-2.595-27.68-12.176-24.698-3.418.969 2.844 22.468 5.469 24.698 3.418z"/><path fill="#FFCC39" d="M271.6 334.23899c-6.277 9.94-28.248-.743-21.84-10.637 3.509-5.418 25.673 4.566 21.84 10.637z"/><path fill="none" stroke="#FF9F00" stroke-miterlimit="10" stroke-width="2.5" d="M271.6 334.23899c-6.277 9.94-28.248-.743-21.84-10.637 3.509-5.418 25.673 4.566 21.84 10.637z"/><path fill="#FFF36C" d="M272.2 332.02c-4.052 7.653-25.797-3.066-21.092-10.534 4.705-7.468 25.144 2.881 21.092 10.534z"/><path fill="none" stroke="#FF9F00" stroke-miterlimit="10" stroke-width="2.5" d="M272.2 332.02c-4.052 7.653-25.797-3.066-21.092-10.534 4.705-7.468 25.144 2.881 21.092 10.534z"/><path fill="#F8B332" d="M260.706 331.17101c-.506-.161-3.793-9.815-3.395-10.057.321-.195 12.545 6.578 12.517 7.007-.028.429-4.575.765-4.977.419-1.042-.897-4.52-4.076-4.52-4.076s2.508 4.002 2.835 4.764c.189.441-1.849 2.137-2.46 1.943z"/><path fill="#FFCC39" d="M190.367 343.754c8.195 8.496-10.618 23.434-18.231 16.057-4.636-4.492 13.247-21.225 18.231-16.057z"/><path fill="none" stroke="#FF9F00" stroke-miterlimit="10" stroke-width="2.5" d="M190.367 343.754c8.195 8.496-10.618 23.434-18.231 16.057-4.636-4.492 13.247-21.225 18.231-16.057z"/><path fill="#FFF36C" d="M188.551 342.346c5.671 5.141-12.574 20.263-17.847 15.405-7.118-6.558 10.731-21.856 17.847-15.405z"/><path fill="none" stroke="#FF9F00" stroke-miterlimit="10" stroke-width="2.5" d="M188.551 342.346c5.671 5.141-12.574 20.263-17.847 15.405-7.118-6.558 10.731-21.856 17.847-15.405z"/><path fill="#FFCC39" d="M296.803 354.743c-7.184-13.469 11.66-23.706 20.815-15.339 11.135 10.175-14.381 27.403-20.815 15.339z"/><path fill="none" stroke="#FF9F00" stroke-miterlimit="10" stroke-width="2.5" d="M296.803 354.743c-7.184-13.469 11.66-23.706 20.815-15.339 11.135 10.175-14.381 27.403-20.815 15.339z"/><path fill="#FFF36C" d="M300.39802 356.265c-8.024-14.328 14.726-23.453 19.992-13.899 6.897 12.514-14.978 22.853-19.992 13.899z"/><path fill="none" stroke="#FF9F00" stroke-miterlimit="10" stroke-width="2.5" d="M300.39802 356.265c-8.024-14.328 14.726-23.453 19.992-13.899 6.897 12.514-14.978 22.853-19.992 13.899z"/><path fill="#FFC23B" d="M305.106 343.747c.363-.426 13.613 5.505 13.793 6.213.145.57-12.285 7.954-12.819 7.487-.534-.467.479-6.098 1.044-6.216 1.464-.305 6.584-1.141 6.584-1.141s-5.856-1.126-6.923-1.516c-.618-.226-2.118-4.312-1.679-4.827z"/><path fill="#FFDE39" d="M248.029 350.686c1.946-.625-5.099-1.289-10.79-.653-10.335 1.155-14.521 8.219-12.863 8.628 6.436 1.589 19.561-6.661 23.653-7.975z"/><path fill="#FFCC39" d="M256.732 372.11699c7.526-12.276-10.272-25.248-20.921-12.133-8.863 10.914 13.846 23.672 20.921 12.133z"/><path fill="none" stroke="#FF9F00" stroke-miterlimit="10" stroke-width="2.5" d="M256.732 372.11699c7.526-12.276-10.272-25.248-20.921-12.133-8.863 10.914 13.846 23.672 20.921 12.133z"/><path fill="#FFF36C" d="M253.714 373.98201c6.459-12.463-13.953-23.882-20.083-9.87-3.438 7.857 17.542 14.772 20.083 9.87z"/><path fill="none" stroke="#FF9F00" stroke-miterlimit="10" stroke-width="2.5" d="M253.714 373.98201c6.459-12.463-13.953-23.882-20.083-9.87-3.438 7.857 17.542 14.772 20.083 9.87z"/><path fill="#FF9F00" d="M323.06799 354.44099c.004-1.569-10.372-3.896-15.222-3.299-8.436 1.038-12.55 6.316-11.838 7.43 1.861 2.91 27.04 3.775 27.06-4.131z"/><path fill="#FFCC39" d="M293.707 375.14c-8.025 7.631-26.33-5.422-17.82-16.084 8.183-10.252 26.958 7.394 17.82 16.084z"/><path fill="none" stroke="#FF9F00" stroke-miterlimit="10" stroke-width="2.5" d="M293.707 375.14c-8.025 7.631-26.33-5.422-17.82-16.084 8.183-10.252 26.958 7.394 17.82 16.084z"/><path fill="#FFF04E" d="M296.818 371.695c-7.91 8.566-27.435-9.136-17.999-16.398 9.436-7.262 25.909 7.832 17.999 16.398z"/><path fill="none" stroke="#FF9F00" stroke-miterlimit="10" stroke-width="2.5" d="M296.818 371.695c-7.91 8.566-27.435-9.136-17.999-16.398 9.436-7.262 25.909 7.832 17.999 16.398z"/><path fill="#FF9F00" d="M257.78 377.064c-3.986-7.515-23.469-13.719-29.186-5.5-2.114 3.04 30.61 8.185 29.186 5.5z"/></g><g style="display:block"><path fill="url(#d)" d="M0-22.708c-19.258 0-143.334-54.804-143.334-54.804s-.039 109.646 5.736 122.653c5.582 12.573 126.666 60.037 137.319 59.841 42.21-.775 129.53-44.164 137.877-59.841 4.55-8.545 5.736-122.653 5.736-122.653S19.258-22.708 0-22.708z" transform="translate(258.445 391.669)"/><path fill="#6ED2FF" d="M258.445 367.884c-19.258 0-143.334-54.805-143.334-54.805s-.789 110.007 5.736 122.654c14.381 27.874 117.429 59.601 137.319 59.84"/><path fill="#CEF1FF" d="M257.421 374.519c-1.095 36.911.17 89.203.019 119.735-.024 4.815 3.164 4.685 3.274.207.432-17.567 1.167-99.829.323-119.518-.392-9.156-3.399-7.738-3.616-.424z"/><path fill="none" stroke="#0078E5" stroke-linecap="round" stroke-linejoin="round" stroke-width="5" d="M258.44499 368.962c-19.258 0-143.334-54.804-143.334-54.804s-1.14201 103.903 5.736 122.653c6.878 18.75 114.814 58.988 137.319 59.84 22.505.852 131.58-40.806 137.877-59.84 6.297-19.034 5.736-122.653 5.736-122.653s-124.076 54.804-143.334 54.804z"/></g><g style="display:block"><path fill="#57C1FF" d="M298.268 442.975c-1.212 3.941-1.493 4.316-6.323 6.788-4.658 2.384-6.409 4.85-2.973 6.922s3.665 1.027 8.657-1.981c7.908-4.765 7.38-2.984 2.049 1.845-7.014 6.353-6.622 7.793-7.534 12.037-1.057 4.919.353 5.4 5.243.146 4.89-5.254 4.574-4.86 8.635-3.592 3.921 1.225 6.741 1.244 5.155-6.301-1.326-6.307.002-6.521 2.908-11.045 3.32-5.169 4.978-8.085-2.313-5.894-5.331 1.602-4.869 1.168-6.367-2.675-2.37-6.08-3.965-6.565-7.137 3.75zM280.63 394.866c-1.212 3.941-1.493 4.316-6.323 6.788-4.658 2.384-6.409 4.851-2.973 6.923s3.666 1.027 8.658-1.981c7.908-4.764 7.379-2.985 2.048 1.844-7.014 6.353-6.622 7.793-7.534 12.037-1.057 4.919.353 5.4 5.243.146 4.89-5.254 4.574-4.86 8.635-3.592 3.921 1.225 6.741 1.245 5.155-6.3-1.326-6.307.002-6.521 2.908-11.045 3.32-5.17 4.979-8.086-2.313-5.895-5.331 1.602-4.868 1.168-6.366-2.675-2.37-6.08-3.966-6.565-7.138 3.75zM377.59601 355.31501c-1.212 3.941-1.493 4.316-6.323 6.788-4.658 2.384-6.409 4.85-2.973 6.922s3.665 1.027 8.657-1.981c7.908-4.765 7.38-2.984 2.049 1.845-7.014 6.353-6.622 7.793-7.534 12.037-1.057 4.919.353 5.4 5.243.146 4.89-5.254 4.574-4.86 8.635-3.592 3.921 1.225 6.741 1.244 5.155-6.301-1.326-6.307.001-6.521 2.907-11.045 3.32-5.169 4.98-8.085-2.312-5.894-5.331 1.602-4.869 1.168-6.367-2.675-2.37-6.08-3.965-6.565-7.137 3.75zM366.58801 421.007c-1.212 3.941-1.493 4.316-6.323 6.788-4.658 2.384-6.41 4.85-2.973 6.922 3.437 2.072 3.665 1.028 8.657-1.98 7.908-4.764 7.38-2.985 2.049 1.844-7.014 6.353-6.622 7.793-7.534 12.037-1.057 4.919.353 5.4 5.243.146 4.89-5.254 4.574-4.86 8.635-3.592 3.921 1.225 6.741 1.244 5.155-6.301-1.326-6.307.002-6.521 2.908-11.045 3.32-5.169 4.979-8.085-2.313-5.894-5.331 1.602-4.868 1.168-6.366-2.675-2.37-6.08-3.966-6.565-7.138 3.75z"/></g><g style="display:block"><path fill="#A6ECFF" d="M235.779 457.357c-1.227 2.971-1.512 3.116-6.403 1.557-4.717-1.503-6.49-.479-3.01 4.509 3.48 4.988 3.711 4.121 8.766 5.274 8.008 1.826 7.472 3.184 2.074 3.591-7.102.535-6.704 2.323-7.628 5.853-1.071 4.092.357 5.764 5.309 4.557 4.952-1.207 4.631-1.075 8.743 3.624 3.97 4.537 6.826 6.928 5.22-2.045-1.343-7.501.002-6.601 2.944-8.739 3.362-2.443 5.041-4-2.342-7.913-5.398-2.861-4.929-2.912-6.446-8.063-2.4-8.149-4.015-9.982-7.227-2.205zM205.577 410.85299c-1.227 2.971-1.512 3.115-6.403 1.556-4.717-1.503-6.49-.478-3.01 4.51 3.48 4.988 3.711 4.121 8.766 5.274 8.008 1.826 7.473 3.184 2.075 3.591-7.102.535-6.705 2.323-7.629 5.853-1.071 4.092.357 5.763 5.309 4.556 4.952-1.207 4.632-1.074 8.744 3.625 3.97 4.537 6.825 6.928 5.219-2.045-1.343-7.501.003-6.601 2.945-8.739 3.362-2.443 5.04-4.001-2.343-7.914-5.398-2.861-4.929-2.911-6.446-8.062-2.4-8.149-4.015-9.982-7.227-2.205zM145.812 412.003c-1.227 2.971-1.512 3.115-6.403 1.556-4.717-1.503-6.49-.479-3.01 4.509 3.48 4.988 3.711 4.122 8.766 5.275 8.008 1.826 7.472 3.183 2.074 3.59-7.102.535-6.704 2.323-7.628 5.853-1.071 4.092.357 5.764 5.309 4.557 4.952-1.207 4.631-1.075 8.743 3.624 3.97 4.537 6.826 6.928 5.22-2.045-1.343-7.501.002-6.601 2.944-8.739 3.362-2.443 5.041-4-2.342-7.913-5.398-2.861-4.929-2.911-6.446-8.062-2.4-8.149-4.015-9.982-7.227-2.205zM130.951 351.701c-1.227 2.971-1.511 3.115-6.402 1.556-4.717-1.503-6.491-.478-3.011 4.51 3.48 4.988 3.711 4.121 8.766 5.274 8.008 1.826 7.473 3.184 2.075 3.591-7.102.535-6.705 2.323-7.629 5.853-1.071 4.092.357 5.763 5.309 4.556 4.952-1.207 4.632-1.075 8.744 3.624 3.97 4.537 6.825 6.928 5.219-2.045-1.343-7.501.003-6.6 2.945-8.738 3.362-2.443 5.041-4.001-2.342-7.914-5.398-2.861-4.93-2.911-6.447-8.062-2.4-8.149-4.015-9.982-7.227-2.205zM234.389 377.176c-1.227 2.971-1.511 3.115-6.402 1.556-4.717-1.503-6.491-.479-3.011 4.509 3.48 4.988 3.711 4.122 8.766 5.275 8.008 1.826 7.473 3.184 2.075 3.591-7.102.535-6.705 2.323-7.629 5.853-1.071 4.092.357 5.763 5.309 4.556 4.952-1.207 4.632-1.075 8.744 3.624 3.97 4.537 6.826 6.928 5.22-2.045-1.343-7.501.002-6.6 2.944-8.738 3.362-2.443 5.041-4.001-2.342-7.914-5.398-2.861-4.93-2.911-6.447-8.062-2.4-8.149-4.015-9.982-7.227-2.205z"/></g><g style="display:block"><path fill="url(#e)" d="M6.582 37.896C5.263-12.817 9.823-36.366 32.621-49.389c-10.274 3.157-37.025 14.545-49.427 23.34-21.857 15.5-24.831 50.23-21.531 81.044.691 6.455 45.086-10.693 44.919-17.099z" transform="matrix(1.00784 0 0 .99228 355.50639 425.23114)"/><path fill="none" stroke="url(#f)" stroke-linecap="round" stroke-linejoin="round" stroke-width="5.001" d="M6.582 37.896C5.263-12.817 9.823-36.366 32.621-49.389c-10.274 3.157-37.025 14.545-49.427 23.34-21.857 15.5-24.831 50.23-21.531 81.044.691 6.455 45.086-10.693 44.919-17.099z" transform="matrix(1.00784 0 0 .99228 355.50639 425.23114)"/><path fill="#F7BD00" d="M359.2495 448.57355s-.84456 6.94696-7.22721 11.08774c-4.7056 3.05225-15.52276 7.456-22.19466 8.36294-5.18735.70452-9.03427.34035-11.0298-.3096-1.11568-.36317.30235 10.69083.30235 10.69083s7.87123 1.42491 24.1035-6.30296c6.9924-3.3291 15.92892-6.82292 16.3512-9.75808.42229-2.93517-.30537-13.77087-.30537-13.77087z"/><path fill="url(#g)" d="M-7.996 20.336C-23.207-2.545-38.837 6.48-39.694 5.647-40.748 4.622-13.484-7.256-4.539-9.9 14.57-15.549 28.041 1.999 26.793 3.809 25.391 5.843-7.306 21.375-7.996 20.336z" transform="matrix(1.00784 0 0 .99228 392.17361 386.17898)"/><path fill="none" stroke="url(#h)" stroke-miterlimit="10" stroke-width="5.001" d="M-7.996 20.336C-23.207-2.545-38.837 6.48-39.694 5.647-40.748 4.622-13.484-7.256-4.539-9.9 14.57-15.549 28.041 1.999 26.793 3.809 25.391 5.843-7.306 21.375-7.996 20.336z" transform="matrix(1.00784 0 0 .99228 392.17361 386.17898)"/></g><g style="display:block"><path fill="#0095F2" d="M158.475 364.113c7.816-4.644 33.306 4.251 44.503 14.226 3.336 2.972 52.964-9.954 55.7-7.492 4.911 4.42-43.271 51.129-43.159 58.317.106 6.836-1.794 36.086-3.567 51.848-8.682-1.787-28.502-6.32-43.002-17.05-1.36-1.006-14.67-97.356-10.475-99.849z" opacity=".5"/><path fill="url(#i)" d="M-8.023 39.775c.322-95.38-22.443-88.091-22.74-92.096-.365-4.926 35.581 7.183 46.509 14.918C39.092-20.88 38.346 52.541 35.7 55.954 32.728 59.788-8.038 44.105-8.023 39.775z" transform="translate(169.358 427.35)"/><path fill="none" stroke="url(#j)" stroke-miterlimit="10" stroke-width="5.001" d="M-8.023 39.775c.322-95.38-22.443-88.091-22.74-92.096-.365-4.926 35.581 7.183 46.509 14.918C39.092-20.88 38.346 52.541 35.7 55.954 32.728 59.788-8.038 44.105-8.023 39.775z" transform="translate(169.358 427.35)"/><path fill="#F7CC10" d="M163.777 453.563s1.385 5.75 5.495 9.493c4.11 3.743 16.713 8.52 23.99 9.132 7.056.593 9.525-.938 10.186.048 1.125 1.679-.516 8.837-.516 8.837s-8.582-.136-21.816-6.122c-6.79-3.072-16.289-6.652-16.792-8.071-.6-1.693-.547-13.317-.547-13.317z"/><path fill="url(#k)" d="M6.98 18.455C22.191-1.125 37.82 6.599 38.677 5.886c1.054-.877-26.21-11.041-35.155-13.304-19.109-4.834-32.58 10.182-31.332 11.731 1.402 1.74 34.1 15.031 34.79 14.142z" transform="translate(142.679 381.875)"/><path fill="none" stroke="url(#l)" stroke-miterlimit="10" stroke-width="5.001" d="M6.98 18.455C22.191-1.125 37.82 6.599 38.677 5.886c1.054-.877-26.21-11.041-35.155-13.304-19.109-4.834-32.58 10.182-31.332 11.731 1.402 1.74 34.1 15.031 34.79 14.142z" transform="translate(142.679 381.875)"/></g><g style="display:block"><path fill="url(#m)" d="M-49.165-42.62s-26.55 22.804-29.364 26.507c-3.465 4.56-8.025 10.458-6.019 14.531 2.006 4.073 33.888 19.659 51.372 27.419 22.738 10.092 78.534 30.233 85.601 29.425 4.256-.486 14.812-11.986 21.765-19.09 6.953-7.104 19.541-17.935 19.541-17.935S48.479 3.232 17.312-8.524C-15.487-20.896-43.693-39.519-49.165-42.62z" transform="translate(164.989 350.70401)"/><path fill="none" stroke="#2D9CDE" stroke-linecap="round" stroke-linejoin="round" stroke-width="5" d="M115.824 308.08401s-26.55 22.804-29.364 26.507c-3.465 4.56-8.025 10.458-6.019 14.531 2.006 4.073 33.888 19.659 51.372 27.419 22.738 10.092 78.534 30.233 85.601 29.425 4.256-.486 14.812-11.986 21.765-19.09 6.953-7.104 19.541-17.935 19.541-17.935s-45.252-15.005-76.419-26.761c-32.799-12.372-61.005-30.995-66.477-34.096z"/><path fill="url(#n)" d="M50.115-45.424S74.928-23.323 77.742-19.62c3.465 4.56 7.921 9.396 5.016 14.956C79.853.896 52.2 13.721 34.716 21.481c-22.738 10.092-76.438 37.143-85.557 34.59-9.458-2.648-14.855-17.15-21.808-24.254-6.953-7.104-20.202-18.728-20.202-18.728s45.89-15.163 77.332-27.953c33.428-13.598 60.162-27.459 65.634-30.56z" transform="translate(352.336 355.792)"/><path fill="none" stroke="#2D9CDE" stroke-linecap="round" stroke-linejoin="round" stroke-width="5" d="M402.451 310.368s24.813 22.101 27.627 25.804c3.465 4.56 7.921 9.396 5.016 14.956-2.905 5.56-30.558 18.385-48.042 26.145-22.738 10.092-76.438 37.143-85.557 34.59-9.458-2.648-14.855-17.15-21.808-24.254-6.953-7.104-20.202-18.728-20.202-18.728s45.89-15.163 77.332-27.953c33.428-13.598 60.162-27.45901 65.634-30.56z"/></g><g style="display:block"><path fill="url(#v)" d="m10.798-86.111 20.578 41.696c1.754 3.554 5.145 6.017 9.067 6.587l46.014 6.686c9.877 1.435 13.821 13.573 6.674 20.54L59.835 21.854c-2.838 2.766-4.133 6.752-3.463 10.658l7.86 45.828c1.687 9.837-8.638 17.339-17.472 12.695L5.604 69.398c-3.508-1.844-7.7-1.844-11.208 0l-41.979 22.069c-8.498 4.467-18.429-2.748-16.806-12.21l3.379-20.374c1.796-10.826 8.624-20.158 18.4-25.145L7.269 8.292c1.252-.746 2.087-2.074 2.097-3.531.005-.683-.153-1.126-.551-1.631-1.021-1.297-2.688-1.907-4.322-1.679l-59.425 8.296c-9.559 1.334-19.197-1.826-26.108-8.563l-12.091-11.786c-7.147-6.967-3.203-19.105 6.674-20.54l46.014-6.686c3.922-.57 7.313-3.033 9.067-6.587l20.578-41.696c4.417-8.95 17.179-8.95 21.596 0z" transform="translate(256.51502 212.312)"/><path fill="none" stroke="#DB9500" stroke-width="5" d="m267.30236 126.19966 20.58316 41.69345c1.75444 3.55378 5.14575 6.01636 9.06782 6.58588l46.01483 6.6803c9.87717 1.43377 13.82268 13.57128 6.67654 20.53917l-33.29198 32.46012c-2.83766 2.76636-4.13216 6.75252-3.46168 10.65843l7.86568 45.82703c1.68821 9.8368-8.63586 17.34007-17.47043 12.69717l-41.15868-21.6319c-3.50823-1.84357-7.70023-1.84306-11.208.00138l-41.97627 22.0742c-8.49745 4.46805-18.42934-2.74572-16.80751-12.20792l3.37648-20.37442c1.79465-10.82622 8.6215-20.15907 18.39688-25.14728l49.87585-25.45218c1.2519-.74615 2.08674-2.07425 2.09656-3.53126.00492-.683-.15314-1.12598-.5512-1.63093-1.02116-1.29687-2.68824-1.90666-4.3222-1.67846l-59.42398 8.30336c-9.55883 1.33518-19.19722-1.82362-26.10906-8.55977l-12.09246-11.7845c-7.14786-6.96612-3.20537-19.1046 6.67145-20.54083l46.01318-6.6917c3.92193-.57048 7.31262-3.0339 9.06618-6.58812l20.57284-41.69855c4.41589-8.95054 17.17789-8.95212 21.596-.00267z"/><path fill="#FFF" d="M170.55915 205.41465c-8.05602-8.231-4.63833-18.78943 4.9975-20.22162l46.40113-6.93775c3.82593-.56847 7.13363-3.02588 8.8442-6.5711l20.07084-41.58848c2.38839-4.9493 6.90212-7.09986 11.52219-6.56143-4.23136-2.91948-11.50831-2.49557-15.24735 5.27789l-19.75993 40.94545c-1.68457 3.4902-4.94127 5.9086-8.7082 6.46908l-45.70715 6.83566c-9.48683 1.41017-13.64057 11.51569-4.89554 19.9046l2.4823 2.4477zM198.82323 294.88614l3.32154-19.86741c1.7657-10.55722 8.48257-19.65605 18.09897-24.52024l49.06592-24.81708c3.09774-2.08938-.96477-6.21488-1.46865-5.31882-.56688 1.00707-1.34877 1.92417-2.56168 2.64032l-48.30797 24.43398c-9.46741 4.78918-16.0803 13.748-17.81801 24.14121l-3.27158 19.5594c-.72848 4.2141.95398 7.96189 3.78628 10.34254-.90024-1.94289-1.26052-4.19185-.84482-6.5939z"/></g></g></g></svg>