<svg xmlns="http://www.w3.org/2000/svg" width="512" height="512" style="width:100%;height:100%;transform:translate3d(0,0,0)"><defs><clipPath id="a"><path d="M0 0h512v512H0z"/></clipPath><clipPath id="b"><path d="M0 0h512v512H0z"/></clipPath><clipPath id="ab"><path d="M0 0h512v512H0z"/></clipPath><clipPath id="aa"><path d="M0 0h512v512H0z"/></clipPath><clipPath id="Z"><path d="M0 0h512v512H0z"/></clipPath><clipPath id="Y"><path d="M0 0h512v512H0z"/></clipPath><clipPath id="X"><path d="M0 0h512v512H0z"/></clipPath><clipPath id="W"><path d="M0 0h512v512H0z"/></clipPath><clipPath id="V"><path d="M0 0h512v512H0z"/></clipPath><clipPath id="U"><path d="M0 0h512v512H0z"/></clipPath><clipPath id="S"><path d="M0 0h512v512H0z"/></clipPath><clipPath id="R"><path d="M0 0h512v512H0z"/></clipPath><clipPath id="Q"><path d="M0 0h512v512H0z"/></clipPath><clipPath id="P"><path d="M0 0h512v512H0z"/></clipPath><clipPath id="O"><path d="M0 0h512v512H0z"/></clipPath><clipPath id="N"><path d="M0 0h512v512H0z"/></clipPath><clipPath id="L"><path d="M0 0h512v512H0z"/></clipPath><clipPath id="K"><path d="M0 0h512v512H0z"/></clipPath><clipPath id="J"><path d="M0 0h512v512H0z"/></clipPath><clipPath id="I"><path d="M0 0h512v512H0z"/></clipPath><clipPath id="G"><path d="M0 0h512v512H0z"/></clipPath><clipPath id="E"><path d="M0 0h512v512H0z"/></clipPath><clipPath id="C"><path d="M0 0h512v512H0z"/></clipPath><clipPath id="A"><path d="M0 0h512v512H0z"/></clipPath><clipPath id="z"><path d="M0 0h512v512H0z"/></clipPath><clipPath id="y"><path d="M0 0h512v512H0z"/></clipPath><clipPath id="x"><path d="M0 0h512v512H0z"/></clipPath><clipPath id="w"><path d="M0 0h512v512H0z"/></clipPath><clipPath id="v"><path d="M0 0h512v512H0z"/></clipPath><clipPath id="t"><path d="M0 0h512v512H0z"/></clipPath><clipPath id="s"><path d="M0 0h512v512H0z"/></clipPath><clipPath id="r"><path d="M0 0h512v512H0z"/></clipPath><clipPath id="q"><path d="M0 0h512v512H0z"/></clipPath><clipPath id="p"><path d="M0 0h512v512H0z"/></clipPath><clipPath id="o"><path d="M0 0h512v512H0z"/></clipPath><clipPath id="n"><path d="M0 0h512v512H0z"/></clipPath><clipPath id="l"><path d="M0 0h512v512H0z"/></clipPath><clipPath id="k"><path d="M0 0h512v512H0z"/></clipPath><clipPath id="j"><path d="M0 0h512v512H0z"/></clipPath><clipPath id="i"><path d="M0 0h512v512H0z"/></clipPath><clipPath id="h"><path d="M0 0h512v512H0z"/></clipPath><clipPath id="g"><path d="M0 0h512v512H0z"/></clipPath><clipPath id="f"><path d="M0 0h512v512H0z"/></clipPath><radialGradient id="T" gradientUnits="userSpaceOnUse" spreadMethod="pad"><stop/><stop/><stop/><stop/><stop/></radialGradient><radialGradient id="M" gradientUnits="userSpaceOnUse" spreadMethod="pad"><stop/><stop/><stop/><stop/><stop/></radialGradient><radialGradient id="H" cx="28.549" cy="-65.034" r="54.56892" fx="28.549" fy="-65.034" gradientUnits="userSpaceOnUse" spreadMethod="pad"><stop offset="0%" stop-color="#FDEE00" stop-opacity=".7"/><stop offset="22%" stop-color="#FDEE00" stop-opacity=".525"/><stop offset="43%" stop-color="#FDEE00" stop-opacity=".35"/><stop offset="71%" stop-color="#FDEE00" stop-opacity=".175"/><stop offset="100%" stop-color="#FDEE00" stop-opacity="0"/></radialGradient><radialGradient id="F" cx="28.549" cy="-65.034" r="54.56892" fx="28.549" fy="-65.034" gradientUnits="userSpaceOnUse" spreadMethod="pad"><stop offset="0%" stop-color="#FDEE00" stop-opacity=".7"/><stop offset="22%" stop-color="#FDEE00" stop-opacity=".525"/><stop offset="43%" stop-color="#FDEE00" stop-opacity=".35"/><stop offset="71%" stop-color="#FDEE00" stop-opacity=".175"/><stop offset="100%" stop-color="#FDEE00" stop-opacity="0"/></radialGradient><radialGradient id="d" cx="1.019" cy="-.101" r="136.86749" fx="1.019" fy="-.101" gradientUnits="userSpaceOnUse" spreadMethod="pad"><stop offset="0%" stop-color="#FFF"/><stop offset="50%" stop-color="#FFF"/><stop offset="100%" stop-color="#FFF"/></radialGradient><radialGradient id="e" cx="0" cy="0" r="100" fx="0" fy="0" gradientUnits="userSpaceOnUse" spreadMethod="pad"><stop offset="70%" stop-color="#EEECEA"/><stop offset="77%" stop-color="#EEECEA" stop-opacity=".75"/><stop offset="85%" stop-color="#EEECEA" stop-opacity=".5"/><stop offset="93%" stop-color="#EEECEA" stop-opacity=".25"/><stop offset="100%" stop-color="#EEECEA" stop-opacity="0"/></radialGradient><radialGradient id="D" cx="-34.75" cy="-112.613" r="58.31876" fx="-34.75" fy="-112.613" gradientUnits="userSpaceOnUse" spreadMethod="pad"><stop offset="0%" stop-color="#FDEE00" stop-opacity=".7"/><stop offset="22%" stop-color="#FDEE00" stop-opacity=".525"/><stop offset="43%" stop-color="#FDEE00" stop-opacity=".35"/><stop offset="71%" stop-color="#FDEE00" stop-opacity=".175"/><stop offset="100%" stop-color="#FDEE00" stop-opacity="0"/></radialGradient><radialGradient id="B" gradientUnits="userSpaceOnUse" spreadMethod="pad"><stop/><stop/><stop/><stop/><stop/></radialGradient><radialGradient id="u" gradientUnits="userSpaceOnUse" spreadMethod="pad"><stop/><stop/><stop/><stop/><stop/></radialGradient><radialGradient id="m" gradientUnits="userSpaceOnUse" spreadMethod="pad"><stop/><stop/><stop/><stop/><stop/></radialGradient><linearGradient id="c" x1="-219.793" x2="152.80499" y1="2.195" y2="3.215" gradientUnits="userSpaceOnUse" spreadMethod="pad"><stop offset="0%" stop-color="#9F9F9C"/><stop offset="5%" stop-color="#B2B1AD"/><stop offset="9%" stop-color="#C6C3BE"/><stop offset="22%" stop-color="#DAD5CF"/><stop offset="34%" stop-color="#EDE7DF"/><stop offset="42%" stop-color="#ECE7DF"/><stop offset="50%" stop-color="#ECE7E0"/><stop offset="58%" stop-color="#ECE7E0"/><stop offset="66%" stop-color="#ECE7E0"/><stop offset="79%" stop-color="#D9D5CF"/><stop offset="92%" stop-color="#C6C3BE"/><stop offset="96%" stop-color="#B2B1AD"/><stop offset="100%" stop-color="#9F9F9C"/></linearGradient></defs><g clip-path="url(#a)"><g clip-path="url(#b)" style="display:block" transform="matrix(.9166 0 0 .9166 21.3504 21.3504)"><g style="display:block"><path fill="url(#c)" d="M-33.696-93.052c-143.302-.609-188.403 53.255-188.403 102.29 0 1.734 11.401 84.166 16.554 133.896 5.029 48.594 83.103 84.695 170.349 84.695s169.319-37.101 174.348-85.695c5.153-49.73 10.555-132.161 10.555-133.896C149.707-40.797 96-92.5-33.696-93.052z" transform="translate(290 240)"/><path fill="url(#d)" d="M0-136.465c75.368 0 136.465 61.097 136.465 136.465S75.368 136.465 0 136.465-136.465 75.368-136.465 0-75.368-136.465 0-136.465z" transform="matrix(1.36 0 0 .72 255.814 243.31)"/><path fill="url(#e)" d="M0-97.381c53.74457 0 97.381 43.63643 97.381 97.381S53.74457 97.381 0 97.381-97.381 53.74457-97.381 0-53.74457-97.381 0-97.381z" transform="matrix(1.743 0 0 .77 253.381 222.381)"/><path fill="none" stroke="#908D88" stroke-miterlimit="10" stroke-width="8" d="M253.304 144.948C133.503 145.764 67 187.5 67.443 250.238c.012 1.734 8.36 85.166 14.179 134.896 5.679 48.594 74.652 82.695 173.182 82.695 98.53 0 167.503-34.101 173.182-82.695 5.819-49.73 14.178-133.162 14.178-134.896 0-49.035-49.664-106.238-188.86-105.29z"/></g><g clip-path="url(#o)" style="display:block" transform="matrix(1 0 0 1 38.99959 -5.45447)"><g style="display:block"><path fill="#929EB0" d="M281.47934 186.11745c-.00581 6.21673-10.64574 11.24715-23.765 11.23454-13.11925-.0126-23.74948-5.06243-23.74366-11.27916.00582-6.21673 10.64575-11.24715 23.765-11.23454 13.11925.01261 23.74948 5.06243 23.74366 11.27916z" opacity=".3"/><path fill="#B1002F" d="M257.33022 139.9309c-6.31276 0-19.06147 17.76167-19.06631 32.21273-.00292 8.8464 5.29134 17.80726 18.2321 18.33203 13.516.54805 19.45918-7.9734 19.96067-16.75481.83614-14.63536-11.95912-33.78995-19.12646-33.78995z"/><g opacity=".3"><path fill="#DF0045" d="M252.67228 163.4049c0 1.55879-.90113 2.81785-2.00983 2.81785-1.10872 0-2.00887-1.25906-2.00887-2.81785 0-1.55103.90015-2.81785 2.00887-2.81785 1.1087 0 2.00983 1.26682 2.00983 2.81785zm5.05273 5.06049c0 1.55103-.90113 2.81882-2.00983 2.81882-1.10872 0-2.00887-1.2678-2.00887-2.81882 0-1.55879.90015-2.81785 2.00887-2.81785 1.1087 0 2.00983 1.25906 2.00983 2.81785zm-10.12195-10.12971c0 1.55103-.90791 2.81785-2.00887 2.81785-1.1087 0-2.00983-1.26682-2.00983-2.81785s.90113-2.81785 2.00983-2.81785c1.10096 0 2.00887 1.26682 2.00887 2.81785zm3.51819 14.45688c0 1.55103-.90791 2.81785-2.00887 2.81785-1.1087 0-2.00983-1.26682-2.00983-2.81785 0-1.55879.90113-2.81785 2.00983-2.81785 1.10096 0 2.00887 1.25906 2.00887 2.81785zm-5.07697-5.06922c0 1.55103-.90114 2.81009-2.00985 2.81009-1.10095 0-2.00887-1.25906-2.00887-2.81009 0-1.55879.90792-2.81785 2.00887-2.81785 1.10871 0 2.00985 1.25906 2.00985 2.81785zm16.80816 5.86171c0 1.5588-.90113 2.81785-2.00985 2.81785-1.10871 0-2.00887-1.25906-2.00887-2.81785 0-1.55103.90016-2.81785 2.00887-2.81785 1.10872 0 2.00985 1.26682 2.00985 2.81785zm5.05175 5.06049c0 1.55103-.90015 2.81785-2.00887 2.81785-1.10094 0-2.00983-1.26682-2.00983-2.81785s.90889-2.81785 2.00983-2.81785c1.10872 0 2.00887 1.26682 2.00887 2.81785zm-11.66328-.73332c0 1.5588-.90113 2.81785-2.00983 2.81785-1.10872 0-2.00887-1.25906-2.00887-2.81785 0-1.55103.90015-2.81882 2.00887-2.81882 1.1087 0 2.00983 1.26779 2.00983 2.81882zm5.1769 5.1769c0 1.55102-.90793 2.81784-2.00887 2.81784-1.10872 0-2.00985-1.26682-2.00985-2.81785 0-1.55879.90113-2.81785 2.00985-2.81785 1.10094 0 2.00886 1.25906 2.00886 2.81785zm-17.0332-6.13623c0 1.5588-.90017 2.81785-2.00887 2.81785-1.10872 0-2.00887-1.25906-2.00887-2.81785 0-1.55103.90015-2.81785 2.00887-2.81785 1.1087 0 2.00887 1.26682 2.00887 2.81785zm-5.06826-5.06922c0 1.55103-.90113 2.81785-2.00983 2.81785-1.10872 0-2.00887-1.26682-2.00887-2.81785s.90015-2.81785 2.00887-2.81785c1.1087 0 2.00983 1.26682 2.00983 2.81785zm10.19665 10.19664c0 1.55103-.90113 2.81785-2.00985 2.81785-1.10871 0-2.00887-1.26682-2.00887-2.81785s.90016-2.81785 2.00887-2.81785c1.10872 0 2.00985 1.26682 2.00985 2.81785zm5.16815 5.16913c0 1.5588-.90016 2.81785-2.00887 2.81785-1.1087 0-2.00983-1.25906-2.00983-2.81785 0-1.55103.90113-2.81785 2.00983-2.81785 1.10871 0 2.00887 1.26682 2.00887 2.81785zm-.52477-33.44851c0 1.55103-.90113 2.81785-2.00983 2.81785-1.10872 0-2.00887-1.26682-2.00887-2.81785s.90015-2.81882 2.00887-2.81882c1.1087 0 2.00983 1.2678 2.00983 2.81882zm5.1187 5.12645c0 1.55103-.90017 2.81882-2.00887 2.81882-1.10096 0-2.00985-1.2678-2.00985-2.81882 0-1.55879.90889-2.81785 2.00985-2.81785 1.1087 0 2.00886 1.25906 2.00886 2.81785zm5.06146 5.05273c0 1.55103-.90113 2.81785-2.00985 2.81785-1.1087 0-2.00887-1.26682-2.00887-2.81785s.90017-2.81785 2.00887-2.81785c1.10872 0 2.00985 1.26682 2.00985 2.81785zm5.12741 5.12742c0 1.55103-.90888 2.81785-2.00984 2.81785-1.1087 0-2.00886-1.26682-2.00886-2.81785s.90016-2.81785 2.00886-2.81785c1.10096 0 2.00984 1.26682 2.00984 2.81785zm5.06825 5.06922c0 1.55103-.90016 2.81785-2.00887 2.81785-1.1087 0-2.00887-1.26682-2.00887-2.81785s.90016-2.81785 2.00887-2.81785c1.10871 0 2.00887 1.26682 2.00887 2.81785zm-14.32302-25.01145c0 1.55103-.90015 2.81785-2.00111 2.81785-1.1087 0-2.00887-1.26682-2.00887-2.81785s.90017-2.81882 2.00887-2.81882c1.10096 0 2.00111 1.2678 2.00111 2.81882zm5.12743 5.12742c0 1.55103-.90017 2.81785-2.00888 2.81785-1.1087 0-2.00983-1.26682-2.00983-2.81785 0-1.55879.90113-2.81882 2.00983-2.81882 1.10871 0 2.00888 1.26003 2.00888 2.81882zm5.06048 5.05176c0 1.5588-.90015 2.81785-2.00887 2.81785-1.1087 0-2.00887-1.25906-2.00887-2.81785 0-1.55103.90016-2.81785 2.00887-2.81785 1.10872 0 2.00887 1.26682 2.00887 2.81785zm5.14488 5.15264c0 1.55103-.90113 2.81785-2.00984 2.81785-1.1087 0-2.00887-1.26682-2.00887-2.81785 0-1.55879.90017-2.81785 2.00887-2.81785 1.10871 0 2.00984 1.25906 2.00984 2.81785z"/></g><path fill="#690027" d="M276.45668 173.71988c-.50052 8.77947-6.44564 17.30771-19.95968 16.7587-12.9398-.52575-18.2331-9.48855-18.2331-18.33398 0-2.71794 4.0478-9.05495 4.0478-9.05495-1.97685 5.09444 1.29982 15.68199 15.05441 15.65677 14.04172-.02522 16.9818-9.89206 15.61118-14.82742 2.7907 1.69847 3.65205 6.76575 3.4794 9.80088z" opacity=".4"/><path fill="#F1F1F1" d="M276.45668 173.71794c-.00873.08342-.00873.16684-.01649.25026-.94187-11.65552-12.44704-26.1706-19.109-26.1706-6.04504 0-18.00805 14.34048-19.00035 25.996-.05044-.55-.06693-1.10095-.06693-1.65094.00872-14.44815 12.7555-32.21564 19.06729-32.21564 7.17024 0 19.95871 19.15847 19.12548 33.79092z" opacity=".24"/><path fill="none" stroke="#720027" stroke-miterlimit="10" stroke-width="7.76" d="M257.33022 139.9309c-6.31276 0-19.89567 17.76167-19.90051 32.21273-.00292 8.8464 6.12554 17.80726 19.0663 18.33203 13.516.54805 20.29339-7.9734 20.79487-16.75481.83614-14.63536-12.79332-33.78995-19.96066-33.78995z"/></g></g><g class="2" clip-path="url(#x)" style="display:block" transform="matrix(1 0 0 1 -45.00085 -5.99963)"><g class="2" style="display:block"><path fill="#929EB0" d="M281.23446 185.93728c-.00576 6.15263-10.536 11.1312-23.52001 11.11871-12.984-.01248-23.50463-5.01024-23.49888-11.16288.00576-6.15264 10.536-11.1312 23.52-11.11872 12.984.01248 23.50464 5.01025 23.49889 11.16289z" opacity=".3"/><path fill="#B1002F" d="M257.3343 140.22688c-6.24768 0-18.86497 17.57856-18.86976 31.88063-.00288 8.7552 5.23679 17.62368 18.04415 18.14304 13.37665.5424 19.25857-7.8912 19.75489-16.58208.82752-14.48447-11.83584-33.4416-18.92929-33.4416z"/><g opacity=".3"><path fill="#DF0045" d="M252.72437 163.45888c0 1.54271-.89184 2.7888-1.9891 2.7888-1.0973 0-1.98817-1.24609-1.98817-2.7888 0-1.53504.89088-2.7888 1.98816-2.7888 1.09727 0 1.98911 1.25376 1.98911 2.7888zm5.00064 5.00831c0 1.53504-.89184 2.78977-1.98911 2.78977-1.09728 0-1.98816-1.25473-1.98816-2.78977 0-1.54271.89088-2.7888 1.98816-2.7888 1.09727 0 1.98911 1.24609 1.98911 2.7888zm-10.0176-10.02528c0 1.53505-.89855 2.7888-1.98816 2.7888-1.09727 0-1.9891-1.25375-1.9891-2.7888 0-1.53504.89183-2.7888 1.9891-2.7888 1.08961 0 1.98816 1.25376 1.98816 2.7888zm3.48192 14.30785c0 1.53504-.89855 2.7888-1.98816 2.7888-1.09727 0-1.9891-1.25376-1.9891-2.7888 0-1.54273.89183-2.7888 1.9891-2.7888 1.08961 0 1.98816 1.24607 1.98816 2.7888zm-5.02463-5.01697c0 1.53504-.89184 2.78112-1.98913 2.78112-1.0896 0-1.98816-1.24608-1.98816-2.78112 0-1.54271.89857-2.7888 1.98816-2.7888 1.09729 0 1.98913 1.24609 1.98913 2.7888zm16.63488 5.80128c0 1.54273-.89184 2.7888-1.98912 2.7888-1.09729 0-1.98816-1.24607-1.98816-2.7888 0-1.53504.89087-2.7888 1.98816-2.7888 1.09728 0 1.98912 1.25376 1.98912 2.7888zm4.99967 5.00832c0 1.53505-.89087 2.7888-1.98815 2.7888-1.0896 0-1.98912-1.25375-1.98912-2.7888 0-1.53504.89952-2.7888 1.98912-2.7888 1.09728 0 1.98815 1.25376 1.98815 2.7888zm-11.54304-.72575c0 1.54271-.89184 2.7888-1.9891 2.7888-1.0973 0-1.98817-1.24609-1.98817-2.7888 0-1.53505.89088-2.78977 1.98816-2.78977 1.09727 0 1.98911 1.25472 1.98911 2.78977zm5.12353 5.12351c0 1.53504-.89857 2.7888-1.98816 2.7888-1.09729 0-1.98913-1.25376-1.98913-2.7888 0-1.54271.89184-2.7888 1.98913-2.7888 1.0896 0 1.98816 1.24609 1.98816 2.7888zm-16.8576-6.07296c0 1.54273-.89089 2.7888-1.98816 2.7888-1.09728 0-1.98816-1.24607-1.98816-2.7888 0-1.53504.89088-2.7888 1.98816-2.7888 1.09727 0 1.98816 1.25376 1.98816 2.7888zm-5.016-5.01695c0 1.53504-.89185 2.7888-1.98912 2.7888-1.09728 0-1.98816-1.25376-1.98816-2.7888 0-1.53505.89088-2.7888 1.98816-2.7888 1.09727 0 1.98911 1.25375 1.98911 2.7888zm10.09152 10.09151c0 1.53505-.89184 2.7888-1.98912 2.7888-1.09729 0-1.98816-1.25375-1.98816-2.7888 0-1.53504.89087-2.7888 1.98816-2.7888 1.09728 0 1.98912 1.25376 1.98912 2.7888zm5.11487 5.11585c0 1.54271-.89087 2.7888-1.98816 2.7888-1.09727 0-1.9891-1.24609-1.9891-2.7888 0-1.53505.89183-2.7888 1.9891-2.7888 1.09729 0 1.98816 1.25375 1.98816 2.7888zm-.51936-33.10369c0 1.53504-.89184 2.7888-1.98911 2.7888-1.09729 0-1.98816-1.25376-1.98816-2.7888 0-1.53503.89087-2.78975 1.98816-2.78975 1.09727 0 1.98911 1.25472 1.98911 2.78975zm5.06593 5.0736c0 1.53504-.89089 2.78977-1.98816 2.78977-1.08961 0-1.98913-1.25473-1.98913-2.78977 0-1.54271.89952-2.7888 1.98913-2.7888 1.09727 0 1.98816 1.24609 1.98816 2.7888zm5.00928 5.00064c0 1.53505-.89184 2.7888-1.98913 2.7888-1.09727 0-1.98815-1.25375-1.98815-2.7888 0-1.53504.89088-2.7888 1.98815-2.7888 1.09729 0 1.98913 1.25376 1.98913 2.7888zm5.07456 5.07456c0 1.53505-.89952 2.7888-1.98912 2.7888-1.09728 0-1.98816-1.25375-1.98816-2.7888 0-1.53504.89088-2.7888 1.98816-2.7888 1.0896 0 1.98912 1.25376 1.98912 2.7888zm5.016 5.01696c0 1.53504-.89089 2.7888-1.98816 2.7888-1.09728 0-1.98816-1.25376-1.98816-2.7888 0-1.53503.89088-2.7888 1.98816-2.7888 1.09727 0 1.98815 1.25377 1.98815 2.7888zm-14.17536-24.7536c0 1.53504-.89088 2.7888-1.98049 2.7888-1.09727 0-1.98816-1.25376-1.98816-2.7888 0-1.53503.8909-2.78975 1.98816-2.78975 1.08961 0 1.98049 1.25472 1.98049 2.78976zm5.07456 5.07457c0 1.53504-.89088 2.7888-1.98817 2.7888-1.09727 0-1.9891-1.25376-1.9891-2.7888 0-1.54272.89183-2.78977 1.9891-2.78977 1.09729 0 1.98817 1.24705 1.98817 2.78977zm5.00831 4.99967c0 1.54273-.89087 2.7888-1.98816 2.7888-1.09727 0-1.98815-1.24607-1.98815-2.7888 0-1.53503.89088-2.7888 1.98815-2.7888 1.09729 0 1.98816 1.25377 1.98816 2.7888zm5.09184 5.09952c0 1.53504-.89184 2.7888-1.98911 2.7888-1.09728 0-1.98816-1.25376-1.98816-2.7888 0-1.54271.89088-2.7888 1.98816-2.7888 1.09727 0 1.98911 1.24609 1.98911 2.7888z"/></g><path fill="#690027" d="M276.26358 173.66751c-.49536 8.68897-6.3792 17.12928-19.75392 16.58592-12.8064-.52032-18.04512-9.39072-18.04512-18.14496 0-2.68991 4.00607-8.9616 4.00607-8.9616-1.95647 5.04192 1.28641 15.52032 14.8992 15.49536 13.89696-.02495 16.80673-9.79007 15.45025-14.67456 2.76192 1.68096 3.6144 6.696 3.44352 9.69984z" opacity=".4"/><path fill="#F1F1F1" d="M276.26358 173.6656c-.00865.08255-.00865.16512-.01632.24767-.93216-11.53535-12.31872-25.9008-18.912-25.9008-5.98273 0-17.8224 14.19265-18.80448 25.728-.04992-.54432-.06624-1.0896-.06624-1.63392.00863-14.2992 12.624-31.88352 18.87072-31.88352 7.09632 0 19.75296 18.96097 18.92832 33.44256z" opacity=".24"/><path fill="none" stroke="#720027" stroke-miterlimit="10" stroke-width="7.68" d="M257.3343 140.22688c-6.24768 0-19.69057 17.57856-19.69536 31.88063-.00288 8.7552 6.06239 17.62368 18.86975 18.14304 13.37665.5424 20.08417-7.8912 20.58049-16.58208.82752-14.48447-12.66144-33.4416-19.75489-33.4416z"/></g></g><g clip-path="url(#y)" style="display:block" transform="matrix(1 0 0 1 -1.00027 -11.95456)"><g style="display:block"><path fill="#929EB0" d="M164.51766 214.39543c-.00603 6.0888-10.42579 11.01488-23.27504 11.00284-12.84927-.01204-23.26043-4.95704-23.2544-11.04584.00602-6.0888 10.42577-11.01574 23.27503-11.0037 12.84927.01204 23.26042 4.9579 23.2544 11.0467z" opacity=".3"/><path fill="#B1002F" d="M140.86679 169.16029c-6.18254 0-18.66974 17.39608-18.67403 31.54996-.00259 8.66364 5.18236 17.43994 17.85703 17.95336 13.23799.53664 19.05847-7.8088 19.54952-16.4088.81872-14.33362-11.71233-33.09452-18.73252-33.09452z"/><g opacity=".3"><path fill="#DF0045" d="M136.3045 192.15067c0 1.5265-.88151 2.7606-1.9677 2.7606-1.08617 0-1.96767-1.2341-1.96767-2.7606 0-1.51876.8815-2.75974 1.96768-2.75974 1.08618 0 1.96769 1.24098 1.96769 2.75974zm4.94843 4.95704c0 1.51876-.8815 2.75974-1.96767 2.75974-1.08618 0-1.96854-1.24098-1.96854-2.75974 0-1.52736.88236-2.7606 1.96854-2.7606s1.96767 1.23324 1.96767 2.7606zm-9.91322-9.92183c0 1.51877-.8901 2.7606-1.96768 2.7606-1.08618 0-1.96767-1.24183-1.96767-2.7606 0-1.51875.8815-2.75974 1.96767-2.75974 1.07759 0 1.96768 1.24099 1.96768 2.75974zm3.44602 14.15905c0 1.51876-.8901 2.7606-1.96768 2.7606-1.08618 0-1.96767-1.24184-1.96767-2.7606 0-1.52736.8815-2.75974 1.96767-2.75974 1.07758 0 1.96768 1.23238 1.96768 2.75974zm-4.97252-4.96392c0 1.51876-.8815 2.75114-1.96767 2.75114-1.07759 0-1.96854-1.23238-1.96854-2.75114 0-1.5265.89095-2.7606 1.96854-2.7606 1.08618 0 1.96767 1.2341 1.96767 2.7606zm16.46127 5.7405c0 1.52736-.88151 2.75974-1.9677 2.75974-1.08617 0-1.96767-1.23238-1.96767-2.75974 0-1.51876.8815-2.7606 1.96768-2.7606 1.08618 0 1.96769 1.24184 1.96769 2.7606zm4.94844 4.95618c0 1.51876-.8815 2.75974-1.96769 2.75974-1.07757 0-1.96768-1.24098-1.96768-2.75974 0-1.51876.8901-2.75974 1.96768-2.75974 1.08618 0 1.96769 1.24098 1.96769 2.75974zm-11.42339-.71896c0 1.5265-.8815 2.75974-1.96767 2.75974-1.08618 0-1.96854-1.23324-1.96854-2.75974 0-1.51876.88236-2.75974 1.96854-2.75974s1.96767 1.24098 1.96767 2.75974zm5.07056 5.07142c0 1.51876-.8901 2.75974-1.96768 2.75974-1.08618 0-1.96767-1.24098-1.96767-2.75974 0-1.52736.8815-2.7606 1.96767-2.7606 1.07759 0 1.96768 1.23324 1.96768 2.7606zm-16.68228-6.01054c0 1.52736-.8815 2.7606-1.96767 2.7606-1.08618 0-1.9677-1.23324-1.9677-2.7606 0-1.51876.88152-2.75974 1.9677-2.75974 1.08618 0 1.96767 1.24098 1.96767 2.75974zm-4.96392-4.96392c0 1.51876-.88236 2.75974-1.96854 2.75974s-1.96768-1.24098-1.96768-2.75974c0-1.51876.8815-2.7606 1.96768-2.7606 1.08618 0 1.96854 1.24184 1.96854 2.7606zm9.98632 9.98632c0 1.51876-.88236 2.75974-1.96854 2.75974s-1.96768-1.24098-1.96768-2.75974c0-1.51876.8815-2.7606 1.96768-2.7606 1.08618 0 1.96854 1.24184 1.96854 2.7606zm5.06196 5.06196c0 1.52736-.8815 2.7606-1.96767 2.7606-1.08618 0-1.9677-1.23324-1.9677-2.7606 0-1.51876.88152-2.75974 1.9677-2.75974 1.08618 0 1.96767 1.24098 1.96767 2.75974zm-.51427-32.75998c0 1.51876-.88151 2.7606-1.9677 2.7606-1.08617 0-1.96767-1.24184-1.96767-2.7606 0-1.51877.8815-2.75975 1.96768-2.75975 1.08618 0 1.96769 1.24098 1.96769 2.75975zm5.0138 5.0224c0 1.51876-.8815 2.75974-1.96769 2.75974-1.07757 0-1.96854-1.24098-1.96854-2.75974 0-1.52736.89097-2.7606 1.96854-2.7606 1.08618 0 1.96769 1.23324 1.96769 2.7606zm4.95618 4.94758c0 1.51876-.8815 2.7606-1.96769 2.7606-1.08618 0-1.96767-1.24184-1.96767-2.7606s.8815-2.75974 1.96767-2.75974c1.08618 0 1.96769 1.24098 1.96769 2.75974zm5.0224 5.0224c0 1.51876-.89097 2.75974-1.96854 2.75974-1.08618 0-1.96769-1.24098-1.96769-2.75974 0-1.51876.8815-2.75974 1.96769-2.75974 1.07757 0 1.96854 1.24098 1.96854 2.75974zm4.96391 4.96478c0 1.51876-.8815 2.75974-1.96768 2.75974-1.08618 0-1.96767-1.24098-1.96767-2.75974 0-1.51876.8815-2.7606 1.96767-2.7606 1.08618 0 1.96768 1.24184 1.96768 2.7606zm-14.02832-24.4971c0 1.51876-.8815 2.75973-1.95908 2.75973-1.08618 0-1.96854-1.24097-1.96854-2.75974 0-1.51875.88236-2.75974 1.96854-2.75974 1.07758 0 1.95908 1.24099 1.95908 2.75974zm5.0224 5.0224c0 1.51876-.88235 2.75974-1.96853 2.75974s-1.96769-1.24098-1.96769-2.75974c0-1.52736.8815-2.7606 1.96769-2.7606 1.08618 0 1.96853 1.23324 1.96853 2.7606zm4.95618 4.94758c0 1.52736-.8815 2.7606-1.96768 2.7606-1.08618 0-1.96767-1.23324-1.96767-2.7606 0-1.51876.8815-2.75974 1.96767-2.75974 1.08618 0 1.96768 1.24098 1.96768 2.75974zm5.03788 5.04648c0 1.51876-.8815 2.75974-1.96768 2.75974-1.08618 0-1.96768-1.24098-1.96768-2.75974 0-1.52736.8815-2.75974 1.96768-2.75974 1.08618 0 1.96768 1.23238 1.96768 2.75974z"/></g><path fill="#690027" d="M159.59931 202.25395c-.4902 8.59828-6.3124 16.94974-19.54865 16.41224-12.67297-.51428-17.8579-9.2923-17.8579-17.95594 0-2.6617 3.9646-8.86832 3.9646-8.86832-1.93587 4.98886 1.27365 15.35788 14.74469 15.3338 13.75226-.02494 16.63154-9.68704 15.28909-14.5211 2.73307 1.66324 3.5776 6.62716 3.40817 9.59932z" opacity=".4"/><path fill="#F1F1F1" d="M159.59931 202.25137c-.0086.0817-.0086.1634-.01633.2451-.92279-11.41564-12.19137-25.63145-18.71532-25.63145-5.92025 0-17.63775 14.04467-18.60955 25.4603-.04901-.53921-.06535-1.07757-.06535-1.6168.0086-14.15043 12.49321-31.55167 18.6749-31.55167 7.02276 0 19.5478 18.76434 18.73165 33.09452z" opacity=".24"/><path fill="none" stroke="#720027" stroke-miterlimit="10" stroke-width="6.88" d="M140.86679 169.16029c-6.18254 0-19.48674 17.39608-19.49104 31.54996-.00257 8.66364 5.99937 17.43994 18.67404 17.95336 13.23799.53664 19.8746-7.8088 20.36566-16.4088.81873-14.33362-12.52847-33.09452-19.54866-33.09452z"/></g></g><g clip-path="url(#z)" style="display:block" transform="matrix(1 0 0 1 5.49966 -10.95444)"><g style="display:block"><path fill="#929EB0" d="M393.23345 216.69127c-.00576 6.15264-10.536 11.1312-23.52 11.11872-12.984-.01248-23.50464-5.01024-23.49888-11.16288.00575-6.15264 10.536-11.1312 23.52-11.11872 12.984.01248 23.50464 5.01024 23.49888 11.16288z" opacity=".3"/><path fill="#B1002F" d="M369.33329 170.98088c-6.24768 0-18.86496 17.57855-18.86975 31.88063-.00289 8.7552 5.23678 17.62368 18.04415 18.14304 13.37664.5424 19.25856-7.8912 19.75488-16.58208.82752-14.48448-11.83584-33.4416-18.92928-33.4416z"/><g opacity=".3"><path fill="#DF0045" d="M364.72336 194.21287c0 1.54272-.89184 2.7888-1.9891 2.7888-1.0973 0-1.98817-1.24608-1.98817-2.7888 0-1.53504.89088-2.7888 1.98816-2.7888 1.09727 0 1.98911 1.25376 1.98911 2.7888zm5.00064 5.00832c0 1.53504-.89184 2.78976-1.9891 2.78976-1.0973 0-1.98817-1.25472-1.98817-2.78976 0-1.54272.89088-2.7888 1.98816-2.7888 1.09727 0 1.98911 1.24608 1.98911 2.7888zm-10.0176-10.02528c0 1.53504-.89854 2.7888-1.98815 2.7888-1.09727 0-1.98911-1.25376-1.98911-2.7888 0-1.53504.89184-2.7888 1.9891-2.7888 1.08962 0 1.98817 1.25376 1.98817 2.7888zm3.48193 14.30784c0 1.53504-.89855 2.7888-1.98816 2.7888-1.09727 0-1.98911-1.25376-1.98911-2.7888 0-1.54272.89184-2.7888 1.9891-2.7888 1.08962 0 1.98817 1.24608 1.98817 2.7888zm-5.02464-5.01696c0 1.53504-.89184 2.78112-1.98912 2.78112-1.0896 0-1.98816-1.24608-1.98816-2.78112 0-1.54272.89856-2.7888 1.98816-2.7888 1.09728 0 1.98912 1.24608 1.98912 2.7888zm16.63488 5.80128c0 1.54272-.89184 2.7888-1.98912 2.7888-1.09729 0-1.98816-1.24608-1.98816-2.7888 0-1.53504.89087-2.7888 1.98816-2.7888 1.09728 0 1.98912 1.25376 1.98912 2.7888zm4.99968 5.00832c0 1.53504-.89088 2.7888-1.98816 2.7888-1.0896 0-1.98911-1.25376-1.98911-2.7888 0-1.53504.89951-2.7888 1.9891-2.7888 1.0973 0 1.98817 1.25376 1.98817 2.7888zm-11.54304-.72576c0 1.54272-.89185 2.7888-1.98912 2.7888-1.09728 0-1.98815-1.24608-1.98815-2.7888 0-1.53504.89087-2.78976 1.98815-2.78976 1.09727 0 1.98912 1.25472 1.98912 2.78976zm5.12352 5.12352c0 1.53504-.89856 2.7888-1.98816 2.7888-1.09728 0-1.98912-1.25376-1.98912-2.7888 0-1.54272.89184-2.7888 1.98912-2.7888 1.0896 0 1.98816 1.24608 1.98816 2.7888zm-16.8576-6.07296c0 1.54272-.89089 2.7888-1.98816 2.7888-1.09728 0-1.98815-1.24608-1.98815-2.7888 0-1.53504.89087-2.7888 1.98815-2.7888 1.09727 0 1.98816 1.25376 1.98816 2.7888zm-5.016-5.01696c0 1.53504-.89184 2.7888-1.98911 2.7888-1.09729 0-1.98816-1.25376-1.98816-2.7888 0-1.53504.89087-2.7888 1.98816-2.7888 1.09727 0 1.9891 1.25376 1.9891 2.7888zm10.09153 10.09152c0 1.53504-.89184 2.7888-1.98913 2.7888s-1.98816-1.25376-1.98816-2.7888c0-1.53504.89087-2.7888 1.98816-2.7888 1.09729 0 1.98913 1.25376 1.98913 2.7888zm5.11486 5.11584c0 1.54272-.89087 2.7888-1.98816 2.7888-1.09727 0-1.9891-1.24608-1.9891-2.7888 0-1.53504.89183-2.7888 1.9891-2.7888 1.09729 0 1.98816 1.25376 1.98816 2.7888zm-.51936-33.10368c0 1.53504-.89184 2.7888-1.9891 2.7888-1.0973 0-1.98817-1.25376-1.98817-2.7888 0-1.53504.89088-2.78976 1.98816-2.78976 1.09727 0 1.98911 1.25472 1.98911 2.78976zm5.06593 5.0736c0 1.53504-.89089 2.78976-1.98816 2.78976-1.0896 0-1.98912-1.25472-1.98912-2.78976 0-1.54272.89951-2.7888 1.98912-2.7888 1.09727 0 1.98816 1.24608 1.98816 2.7888zm5.00928 5.00064c0 1.53504-.89184 2.7888-1.98912 2.7888-1.09727 0-1.98816-1.25376-1.98816-2.7888 0-1.53504.89089-2.7888 1.98816-2.7888 1.09728 0 1.98912 1.25376 1.98912 2.7888zm5.07456 5.07456c0 1.53504-.89952 2.7888-1.98912 2.7888-1.09728 0-1.98816-1.25376-1.98816-2.7888 0-1.53504.89088-2.7888 1.98816-2.7888 1.0896 0 1.98912 1.25376 1.98912 2.7888zm5.016 5.01696c0 1.53504-.89088 2.7888-1.98816 2.7888s-1.98816-1.25376-1.98816-2.7888c0-1.53504.89088-2.7888 1.98816-2.7888s1.98816 1.25376 1.98816 2.7888zm-14.17536-24.7536c0 1.53504-.89088 2.7888-1.98048 2.7888-1.09728 0-1.98816-1.25376-1.98816-2.7888 0-1.53504.89088-2.78976 1.98816-2.78976 1.0896 0 1.98048 1.25472 1.98048 2.78976zm5.07456 5.07457c0 1.53503-.89088 2.7888-1.98816 2.7888s-1.98912-1.25377-1.98912-2.7888c0-1.54273.89184-2.78977 1.98912-2.78977s1.98816 1.24704 1.98816 2.78977zm5.00832 4.99967c0 1.54272-.89088 2.7888-1.98816 2.7888s-1.98816-1.24608-1.98816-2.7888c0-1.53504.89088-2.7888 1.98816-2.7888s1.98816 1.25376 1.98816 2.7888zm5.09184 5.09952c0 1.53504-.89184 2.7888-1.98912 2.7888s-1.98816-1.25376-1.98816-2.7888c0-1.54272.89088-2.7888 1.98816-2.7888s1.98912 1.24608 1.98912 2.7888z"/></g><path fill="#690027" d="M388.26257 204.42151c-.49536 8.68896-6.3792 17.12928-19.75392 16.58592-12.8064-.52032-18.04511-9.39072-18.04511-18.14496 0-2.68992 4.00607-8.9616 4.00607-8.9616-1.95648 5.04192 1.2864 15.52032 14.8992 15.49536 13.89696-.02496 16.80672-9.79008 15.45024-14.67456 2.76192 1.68096 3.6144 6.696 3.44352 9.69984z" opacity=".4"/><path fill="#F1F1F1" d="M388.26257 204.4196c-.00864.08255-.00864.16511-.01632.24767-.93216-11.53536-12.31872-25.9008-18.912-25.9008-5.98273 0-17.8224 14.19264-18.80447 25.728-.04993-.54432-.06624-1.0896-.06624-1.63392.00862-14.2992 12.62399-31.88352 18.87071-31.88352 7.09632 0 19.75296 18.96096 18.92832 33.44256z" opacity=".24"/><path fill="none" stroke="#720027" stroke-miterlimit="10" stroke-width="7.68" d="M369.33329 170.98088c-6.24768 0-19.69056 17.57855-19.69535 31.88063-.00289 8.7552 6.06238 17.62368 18.86975 18.14304 13.37664.5424 20.08416-7.8912 20.58048-16.58208.82752-14.48448-12.66144-33.4416-19.75488-33.4416z"/></g></g><g style="display:block"><path fill="#E4DECE" d="M256.2348 117.9892c-16.583 0-30.0258 7.7182-30.0258 17.2382v90.3196c0 9.52 13.4428 17.2382 30.0258 17.2382s30.0258-7.7182 30.0258-17.2382v-90.3196c0-9.52-13.4428-17.2382-30.0258-17.2382z"/><path fill="#FFFBEB" d="M286.2606 135.2274c0 9.52-13.4428 17.2382-30.0258 17.2382s-30.0258-7.7182-30.0258-17.2382 13.4428-17.2382 30.0258-17.2382 30.0258 7.7182 30.0258 17.2382z"/><path fill="none" stroke="#ADA195" stroke-miterlimit="10" stroke-width="8.399999999999999" d="M256.2348 117.9892c-16.583 0-30.0258 7.7182-30.0258 17.2382v90.3196c0 9.52 13.4428 15.6464 30.0258 15.6464s30.0258-6.1264 30.0258-15.6464v-90.3196c0-9.52-13.4428-17.2382-30.0258-17.2382z"/><path fill="none" stroke="#CEC6BE" stroke-miterlimit="10" stroke-width="8.399999999999999" d="M286.0366 132.9174c-1.9362-8.4602-14.5446-14.9912-29.8102-14.9912-15.295 0-27.923 6.5562-29.8214 15.0416"/><path fill="#CEC6BE" d="M289.9496 131.1212s2.863 7.1288-8.274 13.6752l.0014-8.6464s.0672-1.7108-.1666-2.5284l8.4392-2.5004zM222.4598 131.4922s-3.0226 7.6328 7.5866 13.426l-.0014-8.5204s.0798-2.2736.5404-3.1542l-8.1256-1.7514z"/><path fill="none" stroke="#666" stroke-linecap="round" stroke-linejoin="round" stroke-width="5.6" d="M256.134 126.973s-.9408 4.92239 0 9.2736"/><path fill="#FFF176" d="M255.64085 70.82214s-3.95745 6.93316-9.6558 19.3452c-8.91765 19.42396-4.11705 36.1641 8.7738 36.1641 15.87075 0 15.4098-18.0285 9.4647-31.4349-2.7069-6.10575-8.5827-19.03754-8.5827-24.0744z"/><path fill="none" stroke="#E5A600" stroke-linecap="round" stroke-linejoin="round" stroke-width="8.4" d="M255.64085 70.82214s-3.95745 6.93316-9.6558 19.3452c-8.91765 19.42396-4.11705 36.1641 8.7738 36.1641 15.87075 0 15.4098-18.0285 9.4647-31.4349-2.7069-6.10575-8.5827-19.03754-8.5827-24.0744z"/><path fill="url(#D)" d="M28.208-108.288C23.086-73.271-9.453-49.036-44.47-54.158c-35.017-5.122-59.253-37.662-54.131-72.679s37.662-59.252 72.679-54.13 59.252 37.662 54.13 72.679z" transform="matrix(1.05 0 0 1.05 291.7598 201.22374)"/></g><g clip-path="url(#E)" style="display:block" transform="matrix(1 0 0 1 33.99936 -15.95456)"><g style="display:block"><path fill="#E5DFCF" d="M123.8694 134.1254c-16.5522 0-29.9698 7.7042-29.9698 17.206l.2856 89.4292c0 9.50319 13.419 17.206 29.9712 17.206s29.9698-7.70281 29.9698-17.206l-.2856-89.4292c0-9.5018-13.419-17.206-29.9712-17.206z"/><path fill="#FFFBEB" d="M153.8406 151.3314c0 9.5032-13.419 17.206-29.9712 17.206s-29.9698-7.7042-29.9698-17.206 13.4176-17.206 29.9698-17.206 29.9712 7.7028 29.9712 17.206z"/><path fill="none" stroke="#ADA195" stroke-miterlimit="10" stroke-width="8.399999999999999" d="M123.8694 134.1254c-16.5522 0-29.9698 7.7042-29.9698 17.206l.2856 89.4292c0 9.50319 13.419 15.75979 29.9712 15.75979s29.9698-6.2566 29.9698-15.7598l-.2856-89.4292c0-9.5018-13.419-17.206-29.9712-17.206z"/><path fill="none" stroke="#CEC6BE" stroke-miterlimit="10" stroke-width="8.399999999999999" d="M153.5872 149.0676c-1.9306-8.4322-14.4984-14.9422-29.7136-14.9422-15.246 0-27.8334 6.5352-29.7248 14.9926"/><path fill="#CEC6BE" d="M90.15483 147.57998s-2.65409 5.31088 7.87823 12.67355l-.0014-7.87247s.13165-2.8235.32913-3.51537l-8.20596-1.2857zM157.59187 147.01454s1.9088 6.61103-7.92696 12.74883l.00243-8.3692s.05617-1.4476-.14114-2.13922l8.06567-2.24041z"/><path fill="none" stroke="#666" stroke-linecap="round" stroke-linejoin="round" stroke-width="5.6" d="M123.308 146.1234s-.798 5.0484 0 8.7402"/><path fill="#FFF176" d="M124.09304 93.52644s-3.65715 6.40605-8.9229 17.87625c-8.24145 17.94975-3.80415 33.4194 8.1081 33.4194 14.6664 0 14.2401-16.66035 8.7465-29.0493-2.50214-5.6427-7.9317-17.5917-7.9317-22.24635z"/><path fill="none" stroke="#E5A600" stroke-linecap="round" stroke-linejoin="round" stroke-width="8.4" d="M124.09304 93.52644s-3.65715 6.40605-8.9229 17.87625c-8.24145 17.94975-3.80415 33.4194 8.1081 33.4194 14.6664 0 14.2401-16.66035 8.7465-29.0493-2.50214-5.6427-7.9317-17.5917-7.9317-22.24635z"/><path fill="url(#F)" d="M86.627-59.528C81.894-27.168 51.824-4.773 19.464-9.506c-32.36-4.733-54.755-34.803-50.022-67.163 4.733-32.36 34.803-54.755 67.163-50.022 32.36 4.733 54.755 34.803 50.022 67.163z" transform="matrix(1.05 0 0 1.05 92.9133 173.0041)"/></g></g><g clip-path="url(#G)" style="display:block" transform="matrix(1 0 0 1 -33.5007 -16.4544)"><g style="display:block"><path fill="#E5DFCF" d="M387.1654 134.2754c-16.5522 0-29.9698 7.7042-29.9698 17.206l.2856 89.4292c0 9.5032 13.419 17.206 29.9712 17.206s29.96979-7.7028 29.96979-17.206l-.2856-89.4292c0-9.5018-13.419-17.206-29.9712-17.206z"/><path fill="#FFFBEB" d="M417.1366 151.4814c0 9.5032-13.419 17.206-29.9712 17.206s-29.9698-7.7042-29.9698-17.206 13.4176-17.206 29.9698-17.206 29.9712 7.7028 29.9712 17.206z"/><path fill="none" stroke="#ADA195" stroke-miterlimit="10" stroke-width="8.399999999999999" d="M387.1654 134.2754c-16.5522 0-29.9698 7.7042-29.9698 17.206l.2856 89.4292c0 9.5032 13.419 15.7598 29.9712 15.7598s29.96979-6.2566 29.96979-15.7598l-.2856-89.4292c0-9.5018-13.419-17.206-29.9712-17.206z"/><path fill="none" stroke="#CEC6BE" stroke-miterlimit="10" stroke-width="8.399999999999999" d="M416.8832 149.2176c-1.9306-8.4322-14.4984-14.9422-29.7136-14.9422-15.246 0-27.8334 6.5352-29.7248 14.9926"/><path fill="#CEC6BE" d="M353.3232 147.6104s-2.4668 5.4964 8.0612 12.8562v-8.3692s-.0574-1.4462.14-2.1378l-8.2012-2.3492zM420.512 146.8432s3.0394 6.139-7.4886 13.4988l.0014-8.3692s.056-1.4476-.1414-2.1392l7.6286-2.9904z"/><path fill="none" stroke="#666" stroke-linecap="round" stroke-linejoin="round" stroke-width="5.6" d="M386.604 146.2734s-.798 5.0484 0 8.7402"/><path fill="#FFF176" d="M387.38904 93.67645s-3.65715 6.40605-8.9229 17.87625c-8.24145 17.94975-3.80415 33.4194 8.1081 33.4194 14.6664 0 14.2401-16.66035 8.7465-29.0493-2.50215-5.6427-7.9317-17.5917-7.9317-22.24635z"/><path fill="none" stroke="#E5A600" stroke-linecap="round" stroke-linejoin="round" stroke-width="8.4" d="M387.38904 93.67645s-3.65715 6.40605-8.9229 17.87625c-8.24145 17.94975-3.80415 33.4194 8.1081 33.4194 14.6664 0 14.2401-16.66035 8.7465-29.0493-2.50215-5.6427-7.9317-17.5917-7.9317-22.24635z"/><path fill="url(#H)" d="M86.627-59.528C81.894-27.168 51.824-4.773 19.464-9.506c-32.36-4.733-54.755-34.803-50.022-67.163 4.733-32.36 34.803-54.755 67.163-50.022 32.36 4.733 54.755 34.803 50.022 67.163z" transform="matrix(1.05 0 0 1.05 356.2093 173.1541)"/></g></g><g clip-path="url(#I)" style="display:block" transform="matrix(1 0 0 1 11.00008 -14.95444)"><g style="display:block"><path fill="#929EB0" d="M394.76704 280.04298c-.006 6.409-10.975 11.595-24.50001 11.582-13.525-.013-24.484-5.219-24.478-11.628.006-6.409 10.975-11.595 24.5-11.582 13.525.013 24.484 5.219 24.478 11.628z" opacity=".3"/><path fill="#BF113A" d="M369.87103 232.42799c-6.508 0-19.651 18.311-19.65599 33.209-.003 9.12 5.45499 18.358 18.796 18.899 13.934.565 20.061-8.22 20.578-17.273.862-15.088-12.329-34.835-19.718-34.835z"/><g opacity=".6"><path fill="#FF0057" d="M365.06903 256.62798c0 1.607-.929 2.905-2.07199 2.905-1.143 0-2.071-1.298-2.071-2.905 0-1.599.928-2.905 2.071-2.905 1.14299 0 2.072 1.306 2.072 2.905zm5.209 5.217c0 1.599-.929 2.906-2.072 2.906s-2.07099-1.307-2.07099-2.906c0-1.607.928-2.905 2.071-2.905 1.14299 0 2.07199 1.298 2.07199 2.905zm-10.435-10.443c0 1.599-.93599 2.905-2.071 2.905-1.14299 0-2.07199-1.306-2.07199-2.905 0-1.599.929-2.905 2.072-2.905 1.135 0 2.071 1.306 2.071 2.905zm3.627 14.904c0 1.599-.93599 2.905-2.071 2.905-1.14299 0-2.07199-1.306-2.07199-2.905 0-1.607.929-2.905 2.072-2.905 1.135 0 2.071 1.298 2.071 2.905zm-5.234-5.226c0 1.599-.929 2.897-2.072 2.897-1.135 0-2.071-1.298-2.071-2.897 0-1.607.936-2.905 2.071-2.905 1.143 0 2.072 1.298 2.072 2.905zm17.32801 6.043c0 1.607-.929 2.905-2.072 2.905-1.14301 0-2.071-1.298-2.071-2.905 0-1.599.92799-2.905 2.071-2.905 1.143 0 2.072 1.306 2.072 2.905zm5.208 5.217c0 1.599-.928 2.905-2.071 2.905-1.135 0-2.072-1.306-2.072-2.905 0-1.599.937-2.905 2.072-2.905 1.143 0 2.071 1.306 2.071 2.905zm-12.024-.756c0 1.607-.929 2.905-2.072 2.905s-2.071-1.298-2.071-2.905c0-1.599.928-2.906 2.071-2.906 1.143 0 2.072 1.307 2.072 2.906zm5.337 5.337c0 1.599-.936 2.905-2.071 2.905-1.143 0-2.072-1.306-2.072-2.905 0-1.607.929-2.905 2.072-2.905 1.135 0 2.071 1.298 2.071 2.905zm-17.56-6.326c0 1.607-.928 2.905-2.071 2.905-1.143 0-2.071-1.298-2.071-2.905 0-1.599.928-2.905 2.071-2.905 1.143 0 2.071 1.306 2.071 2.905zm-5.225-5.226c0 1.599-.929 2.905-2.072 2.905s-2.071-1.306-2.071-2.905c0-1.599.928-2.905 2.071-2.905 1.143 0 2.072 1.306 2.072 2.905zm10.512 10.512c0 1.599-.929 2.905-2.072 2.905s-2.071-1.306-2.071-2.905c0-1.599.928-2.905 2.071-2.905 1.143 0 2.072 1.306 2.072 2.905zm5.32799 5.329c0 1.607-.928 2.905-2.071 2.905-1.14299 0-2.07199-1.298-2.07199-2.905 0-1.599.929-2.905 2.072-2.905s2.07099 1.306 2.07099 2.905zm-.541-34.483c0 1.599-.929 2.905-2.072 2.905s-2.071-1.306-2.071-2.905c0-1.599.928-2.906 2.071-2.906 1.143 0 2.072 1.307 2.072 2.906zm5.277 5.285c0 1.599-.928 2.906-2.071 2.906-1.135 0-2.072-1.307-2.072-2.906 0-1.607.937-2.905 2.072-2.905 1.143 0 2.071 1.298 2.071 2.905zm5.21801 5.209c0 1.599-.929 2.905-2.072 2.905s-2.071-1.306-2.071-2.905c0-1.599.928-2.905 2.071-2.905 1.143 0 2.072 1.306 2.072 2.905zm5.286 5.286c0 1.599-.937 2.905-2.072 2.905-1.143 0-2.071-1.306-2.071-2.905 0-1.599.928-2.905 2.071-2.905 1.135 0 2.072 1.306 2.072 2.905zm5.225 5.226c0 1.599-.928 2.905-2.071 2.905-1.143 0-2.071-1.306-2.071-2.905 0-1.599.928-2.905 2.071-2.905 1.143 0 2.071 1.306 2.071 2.905zm-14.766-25.785c0 1.599-.928 2.905-2.063 2.905-1.143 0-2.071-1.306-2.071-2.905 0-1.599.928-2.906 2.071-2.906 1.135 0 2.063 1.307 2.063 2.906zm5.286 5.286c0 1.599-.928 2.905-2.071 2.905-1.143 0-2.072-1.306-2.072-2.905 0-1.607.929-2.906 2.072-2.906s2.071 1.299 2.071 2.906zm5.217 5.208c0 1.607-.928 2.905-2.071 2.905-1.143 0-2.071-1.298-2.071-2.905 0-1.599.928-2.905 2.071-2.905 1.143 0 2.071 1.306 2.071 2.905zm5.304 5.312c0 1.599-.929 2.905-2.072 2.905s-2.071-1.306-2.071-2.905c0-1.607.928-2.905 2.071-2.905 1.143 0 2.072 1.298 2.072 2.905z"/></g><path fill="#90002F" d="M389.58904 267.26198c-.516 9.051-6.645 17.843-20.577 17.277-13.34-.542-18.797-9.782-18.797-18.901 0-2.802 4.173-9.335 4.173-9.335-2.038 5.252 1.34 16.167 15.52 16.141 14.476-.026 17.507-10.198 16.094-15.286 2.877 1.751 3.765 6.975 3.587 10.104z" opacity=".4"/><path fill="#F1F1F1" d="M389.58904 267.25998c-.009.086-.009.172-.017.258-.971-12.016-12.832-26.98-19.7-26.98-6.23201 0-18.565 14.784-19.588 26.8-.052-.567-.069-1.135-.069-1.702.00899-14.895 13.15-33.212 19.657-33.212 7.392 0 20.576 19.751 19.717 34.836z" opacity=".4"/><path fill="none" stroke="#9A0039" stroke-miterlimit="10" stroke-width="8" d="M369.87103 232.42799c-6.508 0-20.511 18.311-20.51599 33.209-.003 9.12 6.31499 18.358 19.656 18.899 13.934.565 20.921-8.22 21.438-17.273.862-15.088-13.189-34.835-20.578-34.835z"/></g></g><g clip-path="url(#K)" style="display:block" transform="matrix(1 0 0 1 70.9998 7.04541)"><g style="display:block"><path fill="#929EB0" d="M168.29901 279.57898c-.007 7.08-12.123 12.808-27.064 12.794-14.941-.014-27.047-5.764-27.04-12.844.007-7.08 12.123-12.809 27.064-12.795 14.941.014 27.047 5.765 27.04 12.845z" opacity=".3"/><path fill="#BF113A" d="M140.798 226.97998c-7.189 0-21.709 20.228-21.71399 36.686-.003 10.074 6.026 20.279 20.764 20.876 15.393.624 22.161-9.08 22.732-19.08.952-16.667-13.619-38.482-21.782-38.482z"/><g opacity=".6"><path fill="#FF0057" d="M135.49301 253.71298c0 1.775-1.025 3.21-2.288 3.21s-2.288-1.435-2.288-3.21c0-1.766 1.025-3.209 2.288-3.209s2.288 1.443 2.288 3.209zm5.754 5.764c0 1.766-1.025 3.209-2.288 3.209s-2.289-1.443-2.289-3.209c0-1.776 1.026-3.21 2.289-3.21 1.263 0 2.288 1.434 2.288 3.21zm-11.527-11.537c0 1.766-1.035 3.21-2.288 3.21-1.263 0-2.288-1.444-2.288-3.21s1.025-3.209 2.288-3.209c1.253 0 2.288 1.443 2.288 3.209zm4.007 16.464c0 1.766-1.035 3.21-2.288 3.21-1.263 0-2.288-1.444-2.288-3.21 0-1.776 1.025-3.209 2.288-3.209 1.253 0 2.288 1.433 2.288 3.209zm-5.782-5.772c0 1.766-1.025 3.199-2.288 3.199-1.253 0-2.289-1.433-2.289-3.199 0-1.775 1.036-3.21 2.289-3.21 1.263 0 2.288 1.435 2.288 3.21zm19.141 6.675c0 1.776-1.025 3.209-2.288 3.209s-2.288-1.433-2.288-3.209c0-1.766 1.025-3.21 2.288-3.21s2.288 1.444 2.288 3.21zm5.754 5.763c0 1.766-1.025 3.209-2.288 3.209-1.253 0-2.288-1.443-2.288-3.209s1.035-3.209 2.288-3.209c1.263 0 2.288 1.443 2.288 3.209zm-13.283-.836c0 1.775-1.025 3.209-2.288 3.209s-2.289-1.434-2.289-3.209c0-1.766 1.026-3.209 2.289-3.209 1.263 0 2.288 1.443 2.288 3.209zm5.896 5.897c0 1.766-1.035 3.209-2.288 3.209-1.263 0-2.288-1.443-2.288-3.209 0-1.776 1.025-3.21 2.288-3.21 1.253 0 2.288 1.434 2.288 3.21zm-19.398-6.989c0 1.776-1.025 3.21-2.288 3.21s-2.288-1.434-2.288-3.21c0-1.766 1.025-3.209 2.288-3.209s2.288 1.443 2.288 3.209zm-5.772-5.772c0 1.766-1.026 3.209-2.289 3.209-1.263 0-2.288-1.443-2.288-3.209s1.025-3.21 2.288-3.21 2.289 1.444 2.289 3.21zm11.612 11.612c0 1.766-1.026 3.209-2.289 3.209-1.263 0-2.288-1.443-2.288-3.209s1.025-3.21 2.288-3.21 2.289 1.444 2.289 3.21zm5.886 5.886c0 1.776-1.025 3.21-2.288 3.21s-2.288-1.434-2.288-3.21c0-1.766 1.025-3.209 2.288-3.209s2.288 1.443 2.288 3.209zm-.598-38.093c0 1.766-1.025 3.21-2.288 3.21s-2.288-1.444-2.288-3.21 1.025-3.209 2.288-3.209 2.288 1.443 2.288 3.209zm5.83 5.84c0 1.766-1.025 3.209-2.288 3.209-1.253 0-2.289-1.443-2.289-3.209 0-1.776 1.036-3.21 2.289-3.21 1.263 0 2.288 1.434 2.288 3.21zm5.763 5.753c0 1.766-1.025 3.21-2.288 3.21s-2.288-1.444-2.288-3.21 1.025-3.209 2.288-3.209 2.288 1.443 2.288 3.209zm5.84 5.84c0 1.766-1.036 3.209-2.289 3.209-1.263 0-2.288-1.443-2.288-3.209s1.025-3.209 2.288-3.209c1.253 0 2.289 1.443 2.289 3.209zm5.772 5.773c0 1.766-1.025 3.209-2.288 3.209s-2.288-1.443-2.288-3.209 1.025-3.21 2.288-3.21 2.288 1.444 2.288 3.21zm-16.312-28.485c0 1.766-1.025 3.209-2.278 3.209-1.263 0-2.289-1.443-2.289-3.209s1.026-3.209 2.289-3.209c1.253 0 2.278 1.443 2.278 3.209zm5.84 5.84c0 1.766-1.026 3.209-2.289 3.209-1.263 0-2.288-1.443-2.288-3.209 0-1.776 1.025-3.21 2.288-3.21s2.289 1.434 2.289 3.21zm5.763 5.753c0 1.776-1.025 3.21-2.288 3.21s-2.288-1.434-2.288-3.21c0-1.766 1.025-3.209 2.288-3.209s2.288 1.443 2.288 3.209zm5.858 5.868c0 1.766-1.025 3.209-2.288 3.209s-2.288-1.443-2.288-3.209c0-1.776 1.025-3.209 2.288-3.209s2.288 1.433 2.288 3.209z"/></g><path fill="#90002F" d="M162.58 265.46098c-.56999 9.998-7.34 19.709-22.73099 19.084-14.736-.598-20.765-10.805-20.765-20.879 0-3.095 4.61-10.312 4.61-10.312-2.251 5.801 1.481 17.858 17.145 17.83 15.991-.029 19.339-11.264 17.778-16.885 3.178 1.934 4.16 7.706 3.963 11.162z" opacity=".4"/><path fill="#F1F1F1" d="M162.58 265.45798c-.01.095-.01.19-.01899.285-1.073-13.274-14.176-29.804-21.762-29.804-6.884 0-20.509 16.331-21.639 29.605-.057-.627-.076-1.253-.076-1.88.01-16.454 14.527-36.688 21.715-36.688 8.166 0 22.73 21.819 21.781 38.482z" opacity=".4"/><path fill="none" stroke="#9A0039" stroke-miterlimit="10" stroke-width="8" d="M140.798 226.97998c-7.189 0-22.659 20.228-22.664 36.686-.00299 10.074 6.97602 20.279 21.714 20.876 15.39301.624 23.11-9.08 23.681-19.08.95201-16.667-14.56799-38.482-22.731-38.482z"/></g></g><g clip-path="url(#Y)" style="display:block" transform="matrix(1 0 0 1 43.99979 -20.95465)"><g style="display:block"><path fill="#929EB0" d="M282.678 310.369c-.007 7.08-12.123 12.808-27.06399 12.794-14.941-.014-27.047-5.764-27.04-12.844.007-7.08 12.123-12.809 27.06399-12.795 14.94101.014 27.047 5.76499 27.04 12.845z" opacity=".3"/><path fill="#BF113A" d="M255.177 257.76999c-7.189 0-21.709 20.228-21.71399 36.686-.003 10.074 6.026 20.279 20.764 20.876 15.393.624 22.161-9.08 22.732-19.08.952-16.667-13.619-38.482-21.782-38.482z"/><g opacity=".6"><path fill="#FF0057" d="M249.872 284.503c0 1.775-1.025 3.20999-2.288 3.20999s-2.288-1.435-2.288-3.21c0-1.766 1.025-3.209 2.288-3.209s2.288 1.443 2.288 3.209zm5.754 5.764c0 1.76599-1.02499 3.20899-2.28799 3.20899-1.263 0-2.289-1.443-2.289-3.209 0-1.776 1.026-3.21 2.289-3.21 1.263 0 2.288 1.434 2.288 3.21zm-11.527-11.53701c0 1.766-1.03499 3.21-2.288 3.21-1.263 0-2.28799-1.444-2.28799-3.21s1.025-3.209 2.288-3.209c1.253 0 2.28799 1.443 2.28799 3.209zm4.007 16.464c0 1.766-1.035 3.21-2.288 3.21-1.263 0-2.28799-1.444-2.28799-3.21 0-1.776 1.025-3.209 2.288-3.209 1.25299 0 2.288 1.433 2.288 3.209zm-5.782-5.772c0 1.766-1.02499 3.199-2.28799 3.199-1.253 0-2.289-1.433-2.289-3.199 0-1.775 1.036-3.21 2.289-3.21 1.263 0 2.288 1.435 2.288 3.21zm19.14101 6.675c0 1.776-1.025 3.209-2.288 3.209s-2.288-1.433-2.288-3.209c0-1.766 1.025-3.21 2.288-3.21s2.288 1.444 2.288 3.21zm5.754 5.763c0 1.766-1.025 3.209-2.288 3.209-1.253 0-2.288-1.443-2.288-3.209s1.035-3.209 2.288-3.209c1.263 0 2.288 1.443 2.288 3.209zm-13.283-.836c0 1.775-1.025 3.209-2.288 3.209s-2.289-1.434-2.289-3.209c0-1.766 1.026-3.209 2.289-3.209 1.263 0 2.288 1.443 2.288 3.209zm5.896 5.897c0 1.766-1.035 3.209-2.288 3.209-1.263 0-2.288-1.443-2.288-3.209 0-1.776 1.025-3.21 2.288-3.21 1.253 0 2.288 1.434 2.288 3.21zm-19.398-6.989c0 1.776-1.025 3.21-2.288 3.21s-2.288-1.434-2.288-3.21c0-1.766 1.025-3.209 2.288-3.209s2.288 1.443 2.288 3.209zm-5.772-5.772c0 1.766-1.026 3.209-2.289 3.209-1.263 0-2.288-1.443-2.288-3.209s1.025-3.21 2.288-3.21 2.289 1.444 2.289 3.21zm11.612 11.612c0 1.766-1.026 3.209-2.289 3.209-1.26301 0-2.288-1.443-2.288-3.209s1.02499-3.21 2.288-3.21c1.263 0 2.289 1.444 2.289 3.21zm5.886 5.886c0 1.776-1.025 3.21-2.288 3.21s-2.28801-1.434-2.28801-3.21c0-1.766 1.025-3.209 2.288-3.209 1.26301 0 2.288 1.443 2.288 3.209zm-.598-38.093c0 1.766-1.025 3.21-2.288 3.21s-2.288-1.444-2.288-3.21 1.025-3.209 2.288-3.209 2.288 1.443 2.288 3.209zm5.83 5.84c0 1.766-1.025 3.209-2.288 3.209-1.253 0-2.289-1.443-2.289-3.209 0-1.776 1.036-3.21 2.289-3.21 1.263 0 2.288 1.434 2.288 3.21zm5.763 5.753c0 1.766-1.025 3.21-2.288 3.21s-2.288-1.444-2.288-3.21 1.025-3.209 2.288-3.209 2.288 1.443 2.288 3.209zm5.84 5.84c0 1.766-1.036 3.209-2.289 3.209-1.263 0-2.288-1.443-2.288-3.209s1.025-3.209 2.288-3.209c1.253 0 2.289 1.443 2.289 3.209zm5.772 5.773c0 1.766-1.025 3.209-2.288 3.209s-2.288-1.443-2.288-3.209 1.025-3.21 2.288-3.21 2.288 1.444 2.288 3.21zm-16.312-28.485c0 1.766-1.025 3.209-2.278 3.209-1.263 0-2.28901-1.443-2.28901-3.209s1.026-3.209 2.289-3.209c1.253 0 2.278 1.443 2.278 3.209zm5.84 5.84c0 1.766-1.026 3.209-2.289 3.209-1.263 0-2.288-1.443-2.288-3.209 0-1.776 1.025-3.21 2.288-3.21s2.289 1.434 2.289 3.21zm5.763 5.753c0 1.776-1.025 3.21-2.288 3.21s-2.288-1.434-2.288-3.21c0-1.766 1.025-3.209 2.288-3.209s2.288 1.443 2.288 3.209zm5.858 5.868c0 1.766-1.025 3.209-2.288 3.209s-2.288-1.443-2.288-3.209c0-1.776 1.025-3.209 2.288-3.209s2.288 1.433 2.288 3.209z"/></g><path fill="#90002F" d="M276.959 296.251c-.57 9.998-7.34 19.709-22.73099 19.084-14.736-.598-20.765-10.805-20.765-20.87901 0-3.095 4.61-10.312 4.61-10.312-2.251 5.801 1.481 17.858 17.145 17.83 15.991-.029 19.339-11.264 17.778-16.885 3.178 1.934 4.16 7.706 3.963 11.162z" opacity=".4"/><path fill="#F1F1F1" d="M276.959 296.24799c-.01.095-.01.19-.01899.285-1.073-13.274-14.176-29.804-21.762-29.804-6.884 0-20.509 16.331-21.639 29.605-.057-.627-.076-1.253-.076-1.88.01-16.454 14.527-36.688 21.715-36.688 8.166 0 22.73 21.819 21.781 38.482z" opacity=".4"/><path fill="none" stroke="#9A0039" stroke-miterlimit="10" stroke-width="8" d="M255.177 257.76999c-7.189 0-22.659 20.228-22.664 36.686-.00299 10.074 6.97601 20.279 21.714 20.876 15.39301.624 23.11-9.08 23.681-19.08.952-16.667-14.56799-38.482-22.731-38.482z"/></g></g><g clip-path="url(#Z)" style="display:block" transform="matrix(1 0 0 1 .00015 .00061)"><g style="display:block"><path fill="#929EB0" d="M163.2159 261.8448c-.0066 7.0499-12.0725 12.7545-26.95 12.7402-14.8775-.0143-26.9324-5.7409-26.9258-12.7908.0066-7.0499 12.0725-12.7545 26.95-12.7402 14.8775.0143 26.9324 5.7409 26.9258 12.7908z" opacity=".3"/><path fill="#BE103A" d="M135.8303 209.4683c-7.1588 0-21.6161 20.1421-21.62159 36.5299-.0033 10.032 6.00049 20.1938 20.67559 20.7889 15.3274.6215 22.0671-9.042 22.6358-19.0003.9482-16.5968-13.5619-38.3185-21.6898-38.3185z"/><g opacity=".6"><path fill="#FF0057" d="M130.5481 236.0883c0 1.7677-1.0219 3.1955-2.2792 3.1955-1.2573 0-2.2781-1.4278-2.2781-3.1955 0-1.7589 1.0208-3.1955 2.2781-3.1955 1.2573 0 2.2792 1.4366 2.2792 3.1955zm5.7299 5.7387c0 1.7589-1.0219 3.1966-2.2792 3.1966-1.2573 0-2.2781-1.4377-2.2781-3.1966 0-1.7677 1.0208-3.1955 2.2781-3.1955 1.2573 0 2.2792 1.4278 2.2792 3.1955zm-11.4785-11.4873c0 1.7589-1.02959 3.1955-2.2781 3.1955-1.25729 0-2.27919-1.4366-2.27919-3.1955s1.0219-3.1955 2.2792-3.1955c1.2485 0 2.2781 1.4366 2.2781 3.1955zm3.9897 16.3944c0 1.7589-1.02959 3.1955-2.2781 3.1955-1.25729 0-2.27919-1.4366-2.27919-3.1955 0-1.7677 1.0219-3.1955 2.27919-3.1955 1.24851 0 2.2781 1.4278 2.2781 3.1955zm-5.7574-5.7486c0 1.7589-1.0219 3.1867-2.2792 3.1867-1.2485 0-2.2781-1.4278-2.2781-3.1867 0-1.7677 1.0296-3.1955 2.2781-3.1955 1.2573 0 2.2792 1.4278 2.2792 3.1955zm19.06081 6.6473c0 1.7677-1.0219 3.1955-2.2792 3.1955-1.25731 0-2.2781-1.4278-2.2781-3.1955 0-1.7589 1.02079-3.1955 2.2781-3.1955 1.2573 0 2.2792 1.4366 2.2792 3.1955zm5.7288 5.7387c0 1.7589-1.0208 3.1955-2.2781 3.1955-1.2485 0-2.2792-1.4366-2.2792-3.1955s1.0307-3.1955 2.2792-3.1955c1.2573 0 2.2781 1.4366 2.2781 3.1955zm-13.22641-.8316c0 1.7677-1.0219 3.1955-2.2792 3.1955-1.2573 0-2.27809-1.4278-2.27809-3.1955 0-1.7589 1.0208-3.1966 2.2781-3.1966 1.25729 0 2.27919 1.4377 2.27919 3.1966zm5.8707 5.8707c0 1.7589-1.0296 3.1955-2.2781 3.1955-1.2573 0-2.2792-1.4366-2.2792-3.1955 0-1.7677 1.0219-3.1955 2.2792-3.1955 1.2485 0 2.2781 1.4278 2.2781 3.1955zm-19.316-6.9586c0 1.7677-1.0208 3.1955-2.2781 3.1955-1.2573 0-2.27809-1.4278-2.27809-3.1955 0-1.7589 1.0208-3.1955 2.2781-3.1955 1.25729 0 2.2781 1.4366 2.2781 3.1955zm-5.7475-5.7486c0 1.7589-1.0219 3.1955-2.27919 3.1955-1.2573 0-2.2781-1.4366-2.2781-3.1955s1.0208-3.1955 2.2781-3.1955c1.25729 0 2.2792 1.4366 2.2792 3.1955zm11.56321 11.5632c0 1.7589-1.0219 3.1955-2.2792 3.1955-1.25731 0-2.2781-1.4366-2.2781-3.1955s1.02079-3.1955 2.2781-3.1955c1.2573 0 2.2792 1.4366 2.2792 3.1955zm5.86079 5.8619c0 1.7677-1.0208 3.1955-2.2781 3.1955-1.2573 0-2.2792-1.4278-2.2792-3.1955 0-1.7589 1.0219-3.1955 2.2792-3.1955 1.2573 0 2.2781 1.4366 2.2781 3.1955zm-.5951-37.9313c0 1.7589-1.0219 3.1955-2.2792 3.1955-1.2573 0-2.2781-1.4366-2.2781-3.1955s1.0208-3.1966 2.2781-3.1966c1.2573 0 2.2792 1.4377 2.2792 3.1966zm5.8047 5.8135c0 1.7589-1.0208 3.1966-2.2781 3.1966-1.2485 0-2.2792-1.4377-2.2792-3.1966 0-1.7677 1.0307-3.1955 2.2792-3.1955 1.2573 0 2.2781 1.4278 2.2781 3.1955zm5.7398 5.7299c0 1.7589-1.0219 3.1955-2.2792 3.1955-1.25729 0-2.2781-1.4366-2.2781-3.1955s1.02081-3.1955 2.2781-3.1955c1.2573 0 2.2792 1.4366 2.2792 3.1955zm5.8146 5.8146c0 1.7589-1.0307 3.1955-2.2792 3.1955-1.2573 0-2.2781-1.4366-2.2781-3.1955s1.0208-3.1955 2.2781-3.1955c1.2485 0 2.2792 1.4366 2.2792 3.1955zm5.7475 5.7486c0 1.7589-1.0208 3.1955-2.2781 3.1955-1.2573 0-2.2781-1.4366-2.2781-3.1955s1.0208-3.1955 2.2781-3.1955c1.2573 0 2.2781 1.4366 2.2781 3.1955zm-16.2426-28.3635c0 1.7589-1.02079 3.1955-2.2693 3.1955-1.25729 0-2.2781-1.4366-2.2781-3.1955s1.02081-3.1966 2.2781-3.1966c1.24851 0 2.2693 1.4377 2.2693 3.1966zm5.8146 5.8146c0 1.7589-1.0208 3.1955-2.2781 3.1955-1.25729 0-2.2792-1.4366-2.2792-3.1955 0-1.7677 1.02191-3.1966 2.2792-3.1966 1.2573 0 2.2781 1.4289 2.2781 3.1966zm5.7387 5.7288c0 1.7677-1.0208 3.1955-2.2781 3.1955-1.2573 0-2.2781-1.4278-2.2781-3.1955 0-1.7589 1.0208-3.1955 2.2781-3.1955 1.2573 0 2.2781 1.4366 2.2781 3.1955zm5.8344 5.8432c0 1.7589-1.0219 3.1955-2.2792 3.1955-1.2573 0-2.2781-1.4366-2.2781-3.1955 0-1.7677 1.0208-3.1955 2.2781-3.1955 1.2573 0 2.2792 1.4278 2.2792 3.1955z"/></g><path fill="#90002F" d="M157.5201 247.7857c-.5676 9.9561-7.3095 19.6273-22.6347 19.0047-14.67399-.5962-20.67669-10.7602-20.67669-20.7911 0-3.0822 4.59029-10.2685 4.59029-10.2685-2.2418 5.7772 1.47401 17.7837 17.072 17.7551 15.9236-.0286 19.2577-11.2178 17.7034-16.8146 3.1647 1.9261 4.1415 7.6725 3.9457 11.1144z" opacity=".4"/><path fill="#F1F1F1" d="M157.5201 247.7835c-.0099.0946-.0099.1892-.0187.2838-1.0681-13.2176-14.1152-29.678-21.67-29.678-6.8552 0-20.4215 16.2624-21.54679 29.48-.0572-.6237-.0759-1.2485-.0759-1.8722.00989-16.3845 14.465-36.5332 21.6227-36.5332 8.1312 0 22.6336 21.7261 21.6887 38.3196z" opacity=".4"/><path fill="none" stroke="#9A0039" stroke-miterlimit="10" stroke-width="8.8" d="M135.8303 209.4683c-7.1588 0-22.5621 20.1421-22.56759 36.5299-.0033 10.032 6.94649 20.1938 21.62159 20.7889 15.3274.6215 23.0131-9.042 23.5818-19.0003.9482-16.5968-14.5079-38.3185-22.6358-38.3185z"/></g></g></g></g></svg>